%
M48
M72
T01C0.0157
T02C0.0236
T03C0.0320
T04C0.0354
T05C0.0394
T06C0.0512
T07C0.0520
T08C0.1260
%
T01
X9995Y30233
X9995Y29858
X12870Y32358
X13120Y31108
X14370Y32983
X15120Y32233
X16370Y32358
X16370Y32983
X16370Y30858
X17495Y30483
X13245Y27233
X13245Y26733
X15495Y26108
X15745Y25858
X16995Y25233
X17245Y24858
X19620Y20858
X18995Y20358
X19370Y19983
X19120Y19608
X19745Y19358
X19495Y18983
X19120Y18608
X17495Y18608
X16495Y18358
X14620Y16483
X14120Y17983
X13370Y18983
X12995Y19733
X13995Y19608
X14495Y20233
X14870Y20483
X14120Y20483
X9995Y17358
X9620Y17108
X9245Y17358
X7995Y20733
X9120Y21233
X9120Y22233
X9120Y23233
X10620Y25983
X10620Y26483
X10870Y32858
X10370Y32858
X23495Y15358
X24245Y13358
X22620Y12983
X22620Y12483
X20745Y12483
X20370Y12983
T02
X5370Y24108
X5370Y22733
X5370Y21358
X5370Y20233
X2995Y20108
X2995Y19233
X1120Y17858
X10620Y17358
X10620Y18358
X11745Y19108
X11995Y19608
X11745Y20108
X10620Y20233
X11870Y24108
X11870Y24608
X16370Y20733
X18995Y12108
X18995Y11483
X19620Y11483
X20245Y11483
X29495Y15108
X29870Y14108
X29870Y13233
X31745Y11483
X31745Y9608
X30745Y9233
X30745Y8358
X30745Y6358
X30745Y5483
X30745Y3483
X30745Y2608
X30745Y1733
X32495Y15483
X32495Y16108
X33120Y16108
X32495Y24733
X19620Y33358
X17870Y34358
X15370Y32608
X12870Y31608
X10120Y31608
X6620Y32858
X5620Y31358
X5620Y30733
X5620Y29358
X6120Y28108
T03
X24104Y11369
X25104Y11369
X26104Y11369
X27104Y11369
X28104Y11369
X29104Y11369
X29104Y17369
X28104Y17369
X27104Y17369
X26104Y17369
X25104Y17369
X24104Y17369
T04
X19620Y2999
X19620Y4968
X19620Y7374
X19620Y9343
T05
X6120Y35608
X7120Y35608
X8120Y35608
X9120Y35608
X10120Y35608
X11120Y35608
X12120Y35608
X13120Y35608
X14120Y35608
X15120Y35608
X16120Y35608
X17120Y35608
X20495Y28233
X20495Y26233
X23495Y26233
X23495Y28233
X26495Y28233
X26495Y26233
X29495Y26233
X29495Y28233
X32495Y28233
X32495Y26233
X35495Y26233
X35495Y28233
X35495Y21233
X32495Y21233
X29495Y21233
X26495Y21233
X23495Y21233
X20495Y21233
X15432Y14795
X15432Y8890
X15432Y6921
X7558Y6921
X7558Y14795
T06
X1745Y3858
X1745Y5858
X1745Y7858
X1745Y12858
X1745Y14858
X1745Y16858
X1745Y18858
X1745Y20858
X1745Y22858
X1745Y24858
X1745Y26858
X1745Y28858
X1745Y30858
X1745Y32858
X19995Y34858
X21995Y34858
X23995Y34858
X25995Y34858
X27995Y34858
X29995Y34858
X31995Y34858
X33995Y34858
X35995Y34858
T07
X6565Y2733
X15425Y2733
T08
X1301Y35235
X1301Y10432
X38309Y10432
X38309Y35235
M30
