G75*
%MOIN*%
%OFA0B0*%
%FSLAX25Y25*%
%IPPOS*%
%LPD*%
%AMOC8*
5,1,8,0,0,1.08239X$1,22.5*
%
%ADD10C,0.00800*%
%ADD11C,0.00591*%
%ADD12C,0.00600*%
%ADD13C,0.00700*%
%ADD14C,0.00900*%
%ADD15C,0.01000*%
D10*
X0016557Y0019233D02*
X0016557Y0025439D01*
X0018626Y0023370D01*
X0020694Y0025439D01*
X0020694Y0019233D01*
X0023003Y0020268D02*
X0024037Y0021302D01*
X0027140Y0021302D01*
X0027140Y0022336D02*
X0027140Y0019233D01*
X0024037Y0019233D01*
X0023003Y0020268D01*
X0024037Y0023370D02*
X0026105Y0023370D01*
X0027140Y0022336D01*
X0029448Y0023370D02*
X0030483Y0023370D01*
X0030483Y0019233D01*
X0031517Y0019233D02*
X0029448Y0019233D01*
X0033745Y0019233D02*
X0033745Y0023370D01*
X0036848Y0023370D01*
X0037882Y0022336D01*
X0037882Y0019233D01*
X0040191Y0019233D02*
X0043293Y0019233D01*
X0044328Y0020268D01*
X0043293Y0021302D01*
X0041225Y0021302D01*
X0040191Y0022336D01*
X0041225Y0023370D01*
X0044328Y0023370D01*
X0030483Y0025439D02*
X0030483Y0026473D01*
X0046842Y0155887D02*
X0053047Y0155887D01*
X0053047Y0160024D01*
X0053047Y0162332D02*
X0048910Y0166469D01*
X0048910Y0168778D02*
X0048910Y0170846D01*
X0047876Y0169812D02*
X0052013Y0169812D01*
X0053047Y0170846D01*
X0052013Y0173075D02*
X0049944Y0173075D01*
X0048910Y0174109D01*
X0048910Y0176178D01*
X0049944Y0177212D01*
X0050978Y0177212D01*
X0050978Y0173075D01*
X0052013Y0173075D02*
X0053047Y0174109D01*
X0053047Y0176178D01*
X0053047Y0179520D02*
X0048910Y0179520D01*
X0050978Y0179520D02*
X0048910Y0181589D01*
X0048910Y0182623D01*
X0048910Y0184892D02*
X0048910Y0187994D01*
X0049944Y0189029D01*
X0053047Y0189029D01*
X0052013Y0191337D02*
X0050978Y0192371D01*
X0050978Y0195474D01*
X0049944Y0195474D02*
X0053047Y0195474D01*
X0053047Y0192371D01*
X0052013Y0191337D01*
X0048910Y0192371D02*
X0048910Y0194440D01*
X0049944Y0195474D01*
X0046842Y0197783D02*
X0046842Y0198817D01*
X0053047Y0198817D01*
X0053047Y0197783D02*
X0053047Y0199851D01*
X0053047Y0184892D02*
X0048910Y0184892D01*
X0053047Y0166469D02*
X0048910Y0162332D01*
X0046842Y0160024D02*
X0046842Y0155887D01*
X0049944Y0155887D02*
X0049944Y0157955D01*
X0049944Y0276961D02*
X0049944Y0279030D01*
X0046842Y0281098D02*
X0046842Y0276961D01*
X0053047Y0276961D01*
X0053047Y0281098D01*
X0053047Y0283407D02*
X0048910Y0283407D01*
X0048910Y0286509D01*
X0049944Y0287544D01*
X0053047Y0287544D01*
X0052013Y0289852D02*
X0049944Y0289852D01*
X0048910Y0290886D01*
X0048910Y0293989D01*
X0049944Y0296298D02*
X0052013Y0296298D01*
X0053047Y0297332D01*
X0053047Y0299400D01*
X0052013Y0300435D01*
X0049944Y0300435D01*
X0048910Y0299400D01*
X0048910Y0297332D01*
X0049944Y0296298D01*
X0053047Y0293989D02*
X0053047Y0290886D01*
X0052013Y0289852D01*
X0052013Y0302743D02*
X0049944Y0302743D01*
X0048910Y0303777D01*
X0048910Y0306880D01*
X0046842Y0306880D02*
X0053047Y0306880D01*
X0053047Y0303777D01*
X0052013Y0302743D01*
X0052013Y0309189D02*
X0049944Y0309189D01*
X0048910Y0310223D01*
X0048910Y0312291D01*
X0049944Y0313326D01*
X0050978Y0313326D01*
X0050978Y0309189D01*
X0052013Y0309189D02*
X0053047Y0310223D01*
X0053047Y0312291D01*
X0053047Y0315634D02*
X0048910Y0315634D01*
X0050978Y0315634D02*
X0048910Y0317703D01*
X0048910Y0318737D01*
X0069575Y0330483D02*
X0071643Y0330483D01*
X0070609Y0330483D02*
X0070609Y0336689D01*
X0069575Y0336689D02*
X0071643Y0336689D01*
X0073872Y0334620D02*
X0076974Y0334620D01*
X0078009Y0333586D01*
X0078009Y0330483D01*
X0081351Y0331518D02*
X0081351Y0335654D01*
X0080317Y0334620D02*
X0082386Y0334620D01*
X0084614Y0333586D02*
X0084614Y0331518D01*
X0085648Y0330483D01*
X0087717Y0330483D01*
X0088751Y0332552D02*
X0084614Y0332552D01*
X0084614Y0333586D02*
X0085648Y0334620D01*
X0087717Y0334620D01*
X0088751Y0333586D01*
X0088751Y0332552D01*
X0091060Y0332552D02*
X0093128Y0334620D01*
X0094162Y0334620D01*
X0096431Y0334620D02*
X0096431Y0330483D01*
X0100568Y0330483D02*
X0100568Y0333586D01*
X0099534Y0334620D01*
X0096431Y0334620D01*
X0102876Y0331518D02*
X0103911Y0332552D01*
X0107013Y0332552D01*
X0107013Y0333586D02*
X0107013Y0330483D01*
X0103911Y0330483D01*
X0102876Y0331518D01*
X0103911Y0334620D02*
X0105979Y0334620D01*
X0107013Y0333586D01*
X0109322Y0336689D02*
X0110356Y0336689D01*
X0110356Y0330483D01*
X0109322Y0330483D02*
X0111390Y0330483D01*
X0091060Y0330483D02*
X0091060Y0334620D01*
X0082386Y0330483D02*
X0081351Y0331518D01*
X0073872Y0330483D02*
X0073872Y0334620D01*
X0139780Y0340483D02*
X0141849Y0340483D01*
X0140814Y0340483D02*
X0140814Y0346689D01*
X0139780Y0346689D02*
X0141849Y0346689D01*
X0144077Y0345654D02*
X0144077Y0341518D01*
X0145111Y0340483D01*
X0147180Y0340483D01*
X0148214Y0341518D01*
X0150523Y0341518D02*
X0151557Y0340483D01*
X0153625Y0340483D01*
X0154659Y0341518D01*
X0154659Y0342552D01*
X0153625Y0343586D01*
X0151557Y0343586D01*
X0150523Y0344620D01*
X0150523Y0345654D01*
X0151557Y0346689D01*
X0153625Y0346689D01*
X0154659Y0345654D01*
X0156968Y0346689D02*
X0160071Y0346689D01*
X0161105Y0345654D01*
X0161105Y0343586D01*
X0160071Y0342552D01*
X0156968Y0342552D01*
X0156968Y0340483D02*
X0156968Y0346689D01*
X0148214Y0345654D02*
X0147180Y0346689D01*
X0145111Y0346689D01*
X0144077Y0345654D01*
X0202983Y0313154D02*
X0202983Y0312120D01*
X0204017Y0311086D01*
X0206086Y0311086D01*
X0207120Y0310052D01*
X0207120Y0309018D01*
X0206086Y0307983D01*
X0204017Y0307983D01*
X0202983Y0309018D01*
X0202983Y0313154D02*
X0204017Y0314189D01*
X0206086Y0314189D01*
X0207120Y0313154D01*
X0209429Y0312120D02*
X0212531Y0312120D01*
X0213565Y0311086D01*
X0213565Y0309018D01*
X0212531Y0307983D01*
X0209429Y0307983D01*
X0209429Y0305915D02*
X0209429Y0312120D01*
X0215874Y0311086D02*
X0215874Y0309018D01*
X0216908Y0307983D01*
X0218977Y0307983D01*
X0220011Y0310052D02*
X0215874Y0310052D01*
X0215874Y0311086D02*
X0216908Y0312120D01*
X0218977Y0312120D01*
X0220011Y0311086D01*
X0220011Y0310052D01*
X0222320Y0310052D02*
X0226456Y0310052D01*
X0226456Y0311086D01*
X0225422Y0312120D01*
X0223354Y0312120D01*
X0222320Y0311086D01*
X0222320Y0309018D01*
X0223354Y0307983D01*
X0225422Y0307983D01*
X0228765Y0309018D02*
X0228765Y0311086D01*
X0229799Y0312120D01*
X0232902Y0312120D01*
X0232902Y0314189D02*
X0232902Y0307983D01*
X0229799Y0307983D01*
X0228765Y0309018D01*
X0230234Y0301689D02*
X0226097Y0301689D01*
X0226097Y0295483D01*
X0226097Y0298586D02*
X0228166Y0298586D01*
X0232543Y0299620D02*
X0232543Y0295483D01*
X0232543Y0297552D02*
X0234611Y0299620D01*
X0235645Y0299620D01*
X0237914Y0298586D02*
X0238948Y0299620D01*
X0241017Y0299620D01*
X0242051Y0298586D01*
X0242051Y0297552D01*
X0237914Y0297552D01*
X0237914Y0296518D02*
X0237914Y0298586D01*
X0237914Y0296518D02*
X0238948Y0295483D01*
X0241017Y0295483D01*
X0244359Y0296518D02*
X0245394Y0295483D01*
X0248496Y0295483D01*
X0248496Y0293415D02*
X0248496Y0299620D01*
X0245394Y0299620D01*
X0244359Y0298586D01*
X0244359Y0296518D01*
X0250805Y0296518D02*
X0251839Y0295483D01*
X0254942Y0295483D01*
X0254942Y0299620D01*
X0257250Y0298586D02*
X0258285Y0299620D01*
X0260353Y0299620D01*
X0261387Y0298586D01*
X0261387Y0297552D01*
X0257250Y0297552D01*
X0257250Y0296518D02*
X0257250Y0298586D01*
X0257250Y0296518D02*
X0258285Y0295483D01*
X0260353Y0295483D01*
X0263696Y0295483D02*
X0263696Y0299620D01*
X0266799Y0299620D01*
X0267833Y0298586D01*
X0267833Y0295483D01*
X0270141Y0296518D02*
X0271176Y0295483D01*
X0274278Y0295483D01*
X0276587Y0296518D02*
X0277621Y0295483D01*
X0280724Y0295483D01*
X0280724Y0294449D02*
X0279690Y0293415D01*
X0278655Y0293415D01*
X0280724Y0294449D02*
X0280724Y0299620D01*
X0276587Y0299620D02*
X0276587Y0296518D01*
X0274278Y0299620D02*
X0271176Y0299620D01*
X0270141Y0298586D01*
X0270141Y0296518D01*
X0271753Y0307983D02*
X0271753Y0312120D01*
X0271753Y0310052D02*
X0273821Y0312120D01*
X0274855Y0312120D01*
X0277124Y0312120D02*
X0277124Y0309018D01*
X0278158Y0307983D01*
X0279192Y0309018D01*
X0280227Y0307983D01*
X0281261Y0309018D01*
X0281261Y0312120D01*
X0284604Y0312120D02*
X0286672Y0312120D01*
X0287706Y0311086D01*
X0287706Y0307983D01*
X0284604Y0307983D01*
X0283570Y0309018D01*
X0284604Y0310052D01*
X0287706Y0310052D01*
X0290015Y0310052D02*
X0292083Y0312120D01*
X0293118Y0312120D01*
X0295386Y0311086D02*
X0296421Y0312120D01*
X0299523Y0312120D01*
X0299523Y0314189D02*
X0299523Y0307983D01*
X0296421Y0307983D01*
X0295386Y0309018D01*
X0295386Y0311086D01*
X0290015Y0312120D02*
X0290015Y0307983D01*
X0290512Y0301689D02*
X0290512Y0295483D01*
X0289478Y0295483D02*
X0291546Y0295483D01*
X0293775Y0295483D02*
X0293775Y0299620D01*
X0296878Y0299620D01*
X0297912Y0298586D01*
X0297912Y0295483D01*
X0302289Y0295483D02*
X0300220Y0299620D01*
X0304357Y0299620D02*
X0302289Y0295483D01*
X0306666Y0296518D02*
X0306666Y0298586D01*
X0307700Y0299620D01*
X0309769Y0299620D01*
X0310803Y0298586D01*
X0310803Y0297552D01*
X0306666Y0297552D01*
X0306666Y0296518D02*
X0307700Y0295483D01*
X0309769Y0295483D01*
X0313111Y0295483D02*
X0313111Y0299620D01*
X0313111Y0297552D02*
X0315180Y0299620D01*
X0316214Y0299620D01*
X0318483Y0299620D02*
X0320551Y0299620D01*
X0319517Y0300654D02*
X0319517Y0296518D01*
X0320551Y0295483D01*
X0322780Y0296518D02*
X0322780Y0298586D01*
X0323814Y0299620D01*
X0325882Y0299620D01*
X0326916Y0298586D01*
X0326916Y0297552D01*
X0322780Y0297552D01*
X0322780Y0296518D02*
X0323814Y0295483D01*
X0325882Y0295483D01*
X0329225Y0295483D02*
X0329225Y0299620D01*
X0329225Y0297552D02*
X0331294Y0299620D01*
X0332328Y0299620D01*
X0333284Y0307983D02*
X0335353Y0312120D01*
X0337661Y0311086D02*
X0337661Y0309018D01*
X0338695Y0307983D01*
X0340764Y0307983D01*
X0341798Y0310052D02*
X0337661Y0310052D01*
X0337661Y0311086D02*
X0338695Y0312120D01*
X0340764Y0312120D01*
X0341798Y0311086D01*
X0341798Y0310052D01*
X0344107Y0310052D02*
X0346175Y0312120D01*
X0347209Y0312120D01*
X0349478Y0311086D02*
X0350512Y0310052D01*
X0352581Y0310052D01*
X0353615Y0309018D01*
X0352581Y0307983D01*
X0349478Y0307983D01*
X0349478Y0311086D02*
X0350512Y0312120D01*
X0353615Y0312120D01*
X0355923Y0311086D02*
X0356958Y0312120D01*
X0359026Y0312120D01*
X0360060Y0311086D01*
X0360060Y0310052D01*
X0355923Y0310052D01*
X0355923Y0309018D02*
X0355923Y0311086D01*
X0355923Y0309018D02*
X0356958Y0307983D01*
X0359026Y0307983D01*
X0344107Y0307983D02*
X0344107Y0312120D01*
X0333284Y0307983D02*
X0331216Y0312120D01*
X0328907Y0311086D02*
X0328907Y0310052D01*
X0324770Y0310052D01*
X0324770Y0309018D02*
X0324770Y0311086D01*
X0325804Y0312120D01*
X0327873Y0312120D01*
X0328907Y0311086D01*
X0327873Y0307983D02*
X0325804Y0307983D01*
X0324770Y0309018D01*
X0322462Y0307983D02*
X0320393Y0310052D01*
X0321427Y0310052D02*
X0318325Y0310052D01*
X0318325Y0307983D02*
X0318325Y0314189D01*
X0321427Y0314189D01*
X0322462Y0313154D01*
X0322462Y0311086D01*
X0321427Y0310052D01*
X0291546Y0301689D02*
X0289478Y0301689D01*
X0269444Y0309018D02*
X0269444Y0311086D01*
X0268410Y0312120D01*
X0266342Y0312120D01*
X0265307Y0311086D01*
X0265307Y0309018D01*
X0266342Y0307983D01*
X0268410Y0307983D01*
X0269444Y0309018D01*
X0262999Y0314189D02*
X0258862Y0314189D01*
X0258862Y0307983D01*
X0258862Y0311086D02*
X0260930Y0311086D01*
X0250805Y0299620D02*
X0250805Y0296518D01*
X0254228Y0194041D02*
X0253194Y0193007D01*
X0253194Y0188870D01*
X0254228Y0187836D01*
X0256296Y0187836D01*
X0257331Y0188870D01*
X0259639Y0188870D02*
X0260673Y0187836D01*
X0262742Y0187836D01*
X0263776Y0188870D01*
X0263776Y0190938D01*
X0262742Y0191973D01*
X0260673Y0191973D01*
X0259639Y0190938D01*
X0259639Y0188870D01*
X0257331Y0193007D02*
X0256296Y0194041D01*
X0254228Y0194041D01*
X0244480Y0191973D02*
X0243445Y0191973D01*
X0241377Y0189904D01*
X0241377Y0187836D02*
X0241377Y0191973D01*
X0239068Y0190938D02*
X0239068Y0189904D01*
X0234932Y0189904D01*
X0234932Y0188870D02*
X0234932Y0190938D01*
X0235966Y0191973D01*
X0238034Y0191973D01*
X0239068Y0190938D01*
X0238034Y0187836D02*
X0235966Y0187836D01*
X0234932Y0188870D01*
X0232703Y0187836D02*
X0231669Y0188870D01*
X0231669Y0193007D01*
X0230635Y0191973D02*
X0232703Y0191973D01*
X0228366Y0191973D02*
X0227332Y0191973D01*
X0225263Y0189904D01*
X0225263Y0187836D02*
X0225263Y0191973D01*
X0222955Y0190938D02*
X0222955Y0189904D01*
X0218818Y0189904D01*
X0218818Y0188870D02*
X0218818Y0190938D01*
X0219852Y0191973D01*
X0221920Y0191973D01*
X0222955Y0190938D01*
X0221920Y0187836D02*
X0219852Y0187836D01*
X0218818Y0188870D01*
X0216509Y0191973D02*
X0214441Y0187836D01*
X0212372Y0191973D01*
X0210064Y0190938D02*
X0210064Y0187836D01*
X0210064Y0190938D02*
X0209029Y0191973D01*
X0205927Y0191973D01*
X0205927Y0187836D01*
X0203698Y0187836D02*
X0201630Y0187836D01*
X0202664Y0187836D02*
X0202664Y0194041D01*
X0201630Y0194041D02*
X0203698Y0194041D01*
X0266085Y0191973D02*
X0266085Y0187836D01*
X0266085Y0191973D02*
X0269187Y0191973D01*
X0270222Y0190938D01*
X0270222Y0187836D01*
X0273564Y0188870D02*
X0274599Y0187836D01*
X0273564Y0188870D02*
X0273564Y0193007D01*
X0272530Y0191973D02*
X0274599Y0191973D01*
X0276827Y0191973D02*
X0276827Y0187836D01*
X0276827Y0189904D02*
X0278896Y0191973D01*
X0279930Y0191973D01*
X0282199Y0190938D02*
X0282199Y0188870D01*
X0283233Y0187836D01*
X0285301Y0187836D01*
X0286335Y0188870D01*
X0286335Y0190938D01*
X0285301Y0191973D01*
X0283233Y0191973D01*
X0282199Y0190938D01*
X0288644Y0187836D02*
X0290712Y0187836D01*
X0289678Y0187836D02*
X0289678Y0194041D01*
X0288644Y0194041D01*
X0292941Y0194041D02*
X0293975Y0194041D01*
X0293975Y0187836D01*
X0292941Y0187836D02*
X0295009Y0187836D01*
X0297238Y0188870D02*
X0297238Y0190938D01*
X0298272Y0191973D01*
X0300341Y0191973D01*
X0301375Y0190938D01*
X0301375Y0189904D01*
X0297238Y0189904D01*
X0297238Y0188870D02*
X0298272Y0187836D01*
X0300341Y0187836D01*
X0303684Y0187836D02*
X0303684Y0191973D01*
X0305752Y0191973D02*
X0303684Y0189904D01*
X0305752Y0191973D02*
X0306786Y0191973D01*
X0315500Y0190938D02*
X0319637Y0190938D01*
X0328391Y0189904D02*
X0331494Y0189904D01*
X0332528Y0190938D01*
X0332528Y0193007D01*
X0331494Y0194041D01*
X0328391Y0194041D01*
X0328391Y0187836D01*
X0330460Y0189904D02*
X0332528Y0187836D01*
X0334837Y0188870D02*
X0334837Y0190938D01*
X0335871Y0191973D01*
X0337939Y0191973D01*
X0338974Y0190938D01*
X0338974Y0189904D01*
X0334837Y0189904D01*
X0334837Y0188870D02*
X0335871Y0187836D01*
X0337939Y0187836D01*
X0341282Y0191973D02*
X0343351Y0187836D01*
X0345419Y0191973D01*
X0354173Y0191973D02*
X0354173Y0187836D01*
X0354173Y0190938D02*
X0358310Y0190938D01*
X0358310Y0191973D02*
X0358310Y0187836D01*
X0358310Y0191973D02*
X0356242Y0194041D01*
X0354173Y0191973D01*
X0379981Y0181667D02*
X0386187Y0181667D01*
X0386187Y0178564D01*
X0385152Y0177530D01*
X0383084Y0177530D01*
X0382050Y0178564D01*
X0382050Y0181667D01*
X0385152Y0183976D02*
X0385152Y0185010D01*
X0386187Y0185010D01*
X0386187Y0183976D01*
X0385152Y0183976D01*
X0385152Y0187198D02*
X0383084Y0187198D01*
X0382050Y0188233D01*
X0382050Y0191335D01*
X0383084Y0193644D02*
X0385152Y0193644D01*
X0386187Y0194678D01*
X0386187Y0196747D01*
X0385152Y0197781D01*
X0383084Y0197781D01*
X0382050Y0196747D01*
X0382050Y0194678D01*
X0383084Y0193644D01*
X0386187Y0191335D02*
X0386187Y0188233D01*
X0385152Y0187198D01*
X0382050Y0175262D02*
X0382050Y0174227D01*
X0384118Y0172159D01*
X0382050Y0172159D02*
X0386187Y0172159D01*
X0384118Y0169850D02*
X0384118Y0165713D01*
X0383084Y0165713D02*
X0382050Y0166748D01*
X0382050Y0168816D01*
X0383084Y0169850D01*
X0384118Y0169850D01*
X0386187Y0168816D02*
X0386187Y0166748D01*
X0385152Y0165713D01*
X0383084Y0165713D01*
X0383084Y0163405D02*
X0386187Y0163405D01*
X0383084Y0163405D02*
X0382050Y0162371D01*
X0382050Y0159268D01*
X0386187Y0159268D01*
X0382050Y0156999D02*
X0382050Y0155965D01*
X0384118Y0153897D01*
X0382050Y0153897D02*
X0386187Y0153897D01*
X0384118Y0151588D02*
X0384118Y0147451D01*
X0383084Y0147451D02*
X0382050Y0148485D01*
X0382050Y0150554D01*
X0383084Y0151588D01*
X0384118Y0151588D01*
X0386187Y0150554D02*
X0386187Y0148485D01*
X0385152Y0147451D01*
X0383084Y0147451D01*
X0382050Y0145143D02*
X0382050Y0142040D01*
X0383084Y0141006D01*
X0385152Y0141006D01*
X0386187Y0142040D01*
X0386187Y0145143D01*
X0379981Y0145143D01*
X0379981Y0137743D02*
X0386187Y0137743D01*
X0386187Y0136709D02*
X0386187Y0138777D01*
X0385152Y0134400D02*
X0383084Y0134400D01*
X0382050Y0133366D01*
X0382050Y0131297D01*
X0383084Y0130263D01*
X0385152Y0130263D01*
X0386187Y0131297D01*
X0386187Y0133366D01*
X0385152Y0134400D01*
X0379981Y0136709D02*
X0379981Y0137743D01*
X0382050Y0127955D02*
X0382050Y0124852D01*
X0383084Y0123818D01*
X0384118Y0124852D01*
X0384118Y0126920D01*
X0385152Y0127955D01*
X0386187Y0126920D01*
X0386187Y0123818D01*
X0386187Y0200089D02*
X0382050Y0200089D01*
X0382050Y0201124D01*
X0383084Y0202158D01*
X0382050Y0203192D01*
X0383084Y0204226D01*
X0386187Y0204226D01*
X0386187Y0202158D02*
X0383084Y0202158D01*
X0383084Y0212980D02*
X0383084Y0217117D01*
X0379981Y0225871D02*
X0386187Y0225871D01*
X0386187Y0230008D01*
X0385152Y0232317D02*
X0386187Y0233351D01*
X0386187Y0236454D01*
X0382050Y0236454D01*
X0384118Y0238762D02*
X0382050Y0241865D01*
X0382050Y0245168D02*
X0382050Y0247236D01*
X0383084Y0248271D01*
X0386187Y0248271D01*
X0386187Y0245168D01*
X0385152Y0244134D01*
X0384118Y0245168D01*
X0384118Y0248271D01*
X0383084Y0250579D02*
X0382050Y0251613D01*
X0382050Y0254716D01*
X0384118Y0253682D02*
X0384118Y0251613D01*
X0383084Y0250579D01*
X0386187Y0250579D02*
X0386187Y0253682D01*
X0385152Y0254716D01*
X0384118Y0253682D01*
X0383084Y0263470D02*
X0383084Y0265539D01*
X0379981Y0267607D02*
X0379981Y0263470D01*
X0386187Y0263470D01*
X0385152Y0269916D02*
X0384118Y0270950D01*
X0384118Y0274053D01*
X0383084Y0274053D02*
X0386187Y0274053D01*
X0386187Y0270950D01*
X0385152Y0269916D01*
X0382050Y0270950D02*
X0382050Y0273018D01*
X0383084Y0274053D01*
X0383084Y0276361D02*
X0382050Y0277395D01*
X0382050Y0280498D01*
X0384118Y0279464D02*
X0384118Y0277395D01*
X0383084Y0276361D01*
X0386187Y0276361D02*
X0386187Y0279464D01*
X0385152Y0280498D01*
X0384118Y0279464D01*
X0383084Y0282807D02*
X0382050Y0283841D01*
X0382050Y0286944D01*
X0384118Y0285909D02*
X0384118Y0283841D01*
X0383084Y0282807D01*
X0386187Y0282807D02*
X0386187Y0285909D01*
X0385152Y0286944D01*
X0384118Y0285909D01*
X0386187Y0289252D02*
X0386187Y0291321D01*
X0386187Y0290286D02*
X0379981Y0290286D01*
X0379981Y0289252D01*
X0383084Y0293549D02*
X0382050Y0294583D01*
X0382050Y0296652D01*
X0383084Y0297686D01*
X0384118Y0297686D01*
X0384118Y0293549D01*
X0385152Y0293549D02*
X0383084Y0293549D01*
X0385152Y0293549D02*
X0386187Y0294583D01*
X0386187Y0296652D01*
X0386187Y0299995D02*
X0382050Y0299995D01*
X0382050Y0302063D02*
X0382050Y0303097D01*
X0382050Y0302063D02*
X0384118Y0299995D01*
X0386187Y0311811D02*
X0382050Y0315948D01*
X0381016Y0315948D01*
X0379981Y0314914D01*
X0379981Y0312846D01*
X0381016Y0311811D01*
X0386187Y0311811D02*
X0386187Y0315948D01*
X0385152Y0318257D02*
X0381016Y0318257D01*
X0379981Y0319291D01*
X0379981Y0321360D01*
X0381016Y0322394D01*
X0385152Y0318257D01*
X0386187Y0319291D01*
X0386187Y0321360D01*
X0385152Y0322394D01*
X0381016Y0322394D01*
X0382050Y0324702D02*
X0379981Y0326771D01*
X0386187Y0326771D01*
X0386187Y0328839D02*
X0386187Y0324702D01*
X0385152Y0331148D02*
X0384118Y0331148D01*
X0383084Y0332182D01*
X0383084Y0334251D01*
X0384118Y0335285D01*
X0385152Y0335285D01*
X0386187Y0334251D01*
X0386187Y0332182D01*
X0385152Y0331148D01*
X0383084Y0332182D02*
X0382050Y0331148D01*
X0381016Y0331148D01*
X0379981Y0332182D01*
X0379981Y0334251D01*
X0381016Y0335285D01*
X0382050Y0335285D01*
X0383084Y0334251D01*
X0379981Y0273018D02*
X0378947Y0273018D01*
X0378947Y0270950D02*
X0379981Y0270950D01*
X0386187Y0241865D02*
X0384118Y0238762D01*
X0386187Y0238762D02*
X0379981Y0238762D01*
X0382050Y0232317D02*
X0385152Y0232317D01*
D11*
X0002447Y0028583D02*
X0002447Y0017333D01*
X0056197Y0017333D01*
X0056197Y0028583D01*
X0056197Y0088583D01*
X0032447Y0088583D01*
X0033982Y0088583D02*
X0033982Y0028583D01*
X0002486Y0028583D01*
X0002486Y0088583D01*
X0033982Y0088583D01*
X0033982Y0118583D02*
X0002486Y0118583D01*
X0002486Y0258583D01*
X0033982Y0258583D01*
X0033982Y0118583D01*
X0033697Y0118583D02*
X0056197Y0118583D01*
X0056197Y0258583D01*
X0033697Y0258583D01*
X0033982Y0258583D02*
X0002486Y0258583D01*
X0002486Y0338583D01*
X0033982Y0338583D01*
X0033982Y0258583D01*
X0056197Y0258583D02*
X0056197Y0328583D01*
X0126197Y0328583D01*
X0126197Y0338583D01*
X0096197Y0338583D01*
X0056197Y0338583D01*
X0056197Y0328583D01*
X0057850Y0323436D02*
X0057850Y0311231D01*
X0064543Y0311231D01*
X0064543Y0323436D01*
X0057850Y0323436D01*
X0065350Y0323436D02*
X0072043Y0323436D01*
X0072043Y0311231D01*
X0065350Y0311231D01*
X0065350Y0323436D01*
X0072850Y0323436D02*
X0079543Y0323436D01*
X0079543Y0311231D01*
X0072850Y0311231D01*
X0072850Y0323436D01*
X0072850Y0309686D02*
X0072850Y0297481D01*
X0079543Y0297481D01*
X0079543Y0309686D01*
X0072850Y0309686D01*
X0072043Y0309686D02*
X0065350Y0309686D01*
X0065350Y0297481D01*
X0072043Y0297481D01*
X0072043Y0309686D01*
X0064543Y0309686D02*
X0057850Y0309686D01*
X0057850Y0297481D01*
X0064543Y0297481D01*
X0064543Y0309686D01*
X0064543Y0295936D02*
X0057850Y0295936D01*
X0057850Y0283731D01*
X0064543Y0283731D01*
X0064543Y0295936D01*
X0065350Y0295936D02*
X0065350Y0283731D01*
X0072043Y0283731D01*
X0072043Y0295936D01*
X0065350Y0295936D01*
X0072850Y0295936D02*
X0072850Y0283731D01*
X0079543Y0283731D01*
X0079543Y0295936D01*
X0072850Y0295936D01*
X0089701Y0283859D02*
X0102693Y0283859D01*
X0102693Y0318308D01*
X0089701Y0318308D01*
X0089701Y0283859D01*
X0099100Y0274686D02*
X0105793Y0274686D01*
X0105793Y0262481D01*
X0099100Y0262481D01*
X0099100Y0274686D01*
X0107398Y0274932D02*
X0119996Y0274932D01*
X0119996Y0249735D01*
X0107398Y0249735D01*
X0107398Y0274932D01*
X0105793Y0262186D02*
X0099100Y0262186D01*
X0099100Y0249981D01*
X0105793Y0249981D01*
X0105793Y0262186D01*
X0103844Y0246930D02*
X0103844Y0240237D01*
X0116049Y0240237D01*
X0116049Y0246930D01*
X0103844Y0246930D01*
X0102693Y0239558D02*
X0102693Y0205109D01*
X0089701Y0205109D01*
X0089701Y0239558D01*
X0102693Y0239558D01*
X0090315Y0236708D02*
X0090317Y0236791D01*
X0090323Y0236875D01*
X0090333Y0236958D01*
X0090346Y0237040D01*
X0090364Y0237122D01*
X0090386Y0237202D01*
X0090411Y0237282D01*
X0090440Y0237360D01*
X0090472Y0237437D01*
X0090509Y0237513D01*
X0090548Y0237586D01*
X0090592Y0237657D01*
X0090638Y0237727D01*
X0090688Y0237794D01*
X0090741Y0237859D01*
X0090796Y0237921D01*
X0090855Y0237980D01*
X0090917Y0238037D01*
X0090981Y0238090D01*
X0091047Y0238141D01*
X0091116Y0238188D01*
X0091187Y0238232D01*
X0091260Y0238273D01*
X0091335Y0238310D01*
X0091411Y0238343D01*
X0091489Y0238373D01*
X0091569Y0238399D01*
X0091649Y0238422D01*
X0091730Y0238440D01*
X0091813Y0238455D01*
X0091895Y0238466D01*
X0091979Y0238473D01*
X0092062Y0238476D01*
X0092146Y0238475D01*
X0092229Y0238470D01*
X0092312Y0238461D01*
X0092395Y0238448D01*
X0092476Y0238432D01*
X0092557Y0238411D01*
X0092637Y0238387D01*
X0092716Y0238359D01*
X0092793Y0238327D01*
X0092869Y0238292D01*
X0092943Y0238253D01*
X0093015Y0238211D01*
X0093085Y0238165D01*
X0093152Y0238116D01*
X0093218Y0238064D01*
X0093280Y0238009D01*
X0093341Y0237951D01*
X0093398Y0237890D01*
X0093452Y0237827D01*
X0093503Y0237761D01*
X0093552Y0237692D01*
X0093596Y0237622D01*
X0093638Y0237549D01*
X0093676Y0237475D01*
X0093710Y0237399D01*
X0093741Y0237321D01*
X0093768Y0237242D01*
X0093792Y0237162D01*
X0093811Y0237081D01*
X0093827Y0236999D01*
X0093839Y0236916D01*
X0093847Y0236833D01*
X0093851Y0236750D01*
X0093851Y0236666D01*
X0093847Y0236583D01*
X0093839Y0236500D01*
X0093827Y0236417D01*
X0093811Y0236335D01*
X0093792Y0236254D01*
X0093768Y0236174D01*
X0093741Y0236095D01*
X0093710Y0236017D01*
X0093676Y0235941D01*
X0093638Y0235867D01*
X0093596Y0235794D01*
X0093552Y0235724D01*
X0093503Y0235655D01*
X0093452Y0235589D01*
X0093398Y0235526D01*
X0093341Y0235465D01*
X0093280Y0235407D01*
X0093218Y0235352D01*
X0093152Y0235300D01*
X0093085Y0235251D01*
X0093015Y0235205D01*
X0092943Y0235163D01*
X0092869Y0235124D01*
X0092793Y0235089D01*
X0092716Y0235057D01*
X0092637Y0235029D01*
X0092557Y0235005D01*
X0092476Y0234984D01*
X0092395Y0234968D01*
X0092312Y0234955D01*
X0092229Y0234946D01*
X0092146Y0234941D01*
X0092062Y0234940D01*
X0091979Y0234943D01*
X0091895Y0234950D01*
X0091813Y0234961D01*
X0091730Y0234976D01*
X0091649Y0234994D01*
X0091569Y0235017D01*
X0091489Y0235043D01*
X0091411Y0235073D01*
X0091335Y0235106D01*
X0091260Y0235143D01*
X0091187Y0235184D01*
X0091116Y0235228D01*
X0091047Y0235275D01*
X0090981Y0235326D01*
X0090917Y0235379D01*
X0090855Y0235436D01*
X0090796Y0235495D01*
X0090741Y0235557D01*
X0090688Y0235622D01*
X0090638Y0235689D01*
X0090592Y0235759D01*
X0090548Y0235830D01*
X0090509Y0235903D01*
X0090472Y0235979D01*
X0090440Y0236056D01*
X0090411Y0236134D01*
X0090386Y0236214D01*
X0090364Y0236294D01*
X0090346Y0236376D01*
X0090333Y0236458D01*
X0090323Y0236541D01*
X0090317Y0236625D01*
X0090315Y0236708D01*
X0079543Y0232481D02*
X0072850Y0232481D01*
X0072850Y0244686D01*
X0079543Y0244686D01*
X0079543Y0232481D01*
X0079543Y0230936D02*
X0072850Y0230936D01*
X0072850Y0218731D01*
X0079543Y0218731D01*
X0079543Y0230936D01*
X0072043Y0230936D02*
X0065350Y0230936D01*
X0065350Y0218731D01*
X0072043Y0218731D01*
X0072043Y0230936D01*
X0072043Y0232481D02*
X0065350Y0232481D01*
X0065350Y0244686D01*
X0072043Y0244686D01*
X0072043Y0232481D01*
X0064543Y0232481D02*
X0064543Y0244686D01*
X0057850Y0244686D01*
X0057850Y0232481D01*
X0064543Y0232481D01*
X0064543Y0230936D02*
X0057850Y0230936D01*
X0057850Y0218731D01*
X0064543Y0218731D01*
X0064543Y0230936D01*
X0064543Y0217186D02*
X0057850Y0217186D01*
X0057850Y0204981D01*
X0064543Y0204981D01*
X0064543Y0217186D01*
X0065350Y0217186D02*
X0065350Y0204981D01*
X0072043Y0204981D01*
X0072043Y0217186D01*
X0065350Y0217186D01*
X0072850Y0217186D02*
X0072850Y0204981D01*
X0079543Y0204981D01*
X0079543Y0217186D01*
X0072850Y0217186D01*
X0064543Y0192186D02*
X0057850Y0192186D01*
X0057850Y0179981D01*
X0064543Y0179981D01*
X0064543Y0192186D01*
X0065350Y0185936D02*
X0072043Y0185936D01*
X0072043Y0173731D01*
X0065350Y0173731D01*
X0065350Y0185936D01*
X0130328Y0237533D02*
X0159566Y0237533D01*
X0159566Y0307033D01*
X0130328Y0307033D01*
X0130328Y0237533D01*
X0167850Y0254981D02*
X0174543Y0254981D01*
X0174543Y0267186D01*
X0167850Y0267186D01*
X0167850Y0254981D01*
X0199356Y0287766D02*
X0199356Y0207530D01*
X0240537Y0207530D01*
X0240537Y0287766D01*
X0199356Y0287766D01*
X0189947Y0291083D02*
X0369947Y0291083D01*
X0369947Y0304833D01*
X0369947Y0332333D01*
X0369947Y0332048D02*
X0309947Y0332048D01*
X0309947Y0363544D01*
X0369947Y0363544D01*
X0369947Y0332048D01*
X0346049Y0321930D02*
X0346049Y0315237D01*
X0333844Y0315237D01*
X0333844Y0321930D01*
X0346049Y0321930D01*
X0369947Y0304833D02*
X0309947Y0304833D01*
X0309947Y0331083D01*
X0309947Y0332048D02*
X0249947Y0332048D01*
X0189947Y0332048D01*
X0189947Y0363544D01*
X0249947Y0363544D01*
X0249947Y0332048D01*
X0249947Y0363544D01*
X0309947Y0363544D01*
X0309947Y0332048D01*
X0286049Y0321930D02*
X0286049Y0315237D01*
X0273844Y0315237D01*
X0273844Y0321930D01*
X0286049Y0321930D01*
X0309947Y0304833D02*
X0249947Y0304833D01*
X0189947Y0304833D01*
X0189947Y0291083D02*
X0189947Y0332333D01*
X0176197Y0338583D02*
X0176197Y0349833D01*
X0176197Y0349083D02*
X0176197Y0363083D01*
X0126197Y0363083D01*
X0126197Y0349083D01*
X0056197Y0349083D01*
X0056197Y0363083D01*
X0126197Y0363083D01*
X0126197Y0349083D01*
X0176197Y0349083D01*
X0176197Y0338583D02*
X0126197Y0338583D01*
X0126197Y0349833D01*
X0131197Y0346083D02*
X0128697Y0341083D01*
X0133697Y0341083D01*
X0131197Y0346083D01*
X0146344Y0336930D02*
X0146344Y0330237D01*
X0158549Y0330237D01*
X0158549Y0336930D01*
X0146344Y0336930D01*
X0125793Y0325936D02*
X0119100Y0325936D01*
X0119100Y0313731D01*
X0125793Y0313731D01*
X0125793Y0325936D01*
X0118293Y0325936D02*
X0111600Y0325936D01*
X0111600Y0313731D01*
X0118293Y0313731D01*
X0118293Y0325936D01*
X0111049Y0325680D02*
X0098844Y0325680D01*
X0098844Y0318987D01*
X0111049Y0318987D01*
X0111049Y0325680D01*
X0111600Y0312186D02*
X0111600Y0299981D01*
X0118293Y0299981D01*
X0118293Y0312186D01*
X0111600Y0312186D01*
X0090315Y0315458D02*
X0090317Y0315541D01*
X0090323Y0315625D01*
X0090333Y0315708D01*
X0090346Y0315790D01*
X0090364Y0315872D01*
X0090386Y0315952D01*
X0090411Y0316032D01*
X0090440Y0316110D01*
X0090472Y0316187D01*
X0090509Y0316263D01*
X0090548Y0316336D01*
X0090592Y0316407D01*
X0090638Y0316477D01*
X0090688Y0316544D01*
X0090741Y0316609D01*
X0090796Y0316671D01*
X0090855Y0316730D01*
X0090917Y0316787D01*
X0090981Y0316840D01*
X0091047Y0316891D01*
X0091116Y0316938D01*
X0091187Y0316982D01*
X0091260Y0317023D01*
X0091335Y0317060D01*
X0091411Y0317093D01*
X0091489Y0317123D01*
X0091569Y0317149D01*
X0091649Y0317172D01*
X0091730Y0317190D01*
X0091813Y0317205D01*
X0091895Y0317216D01*
X0091979Y0317223D01*
X0092062Y0317226D01*
X0092146Y0317225D01*
X0092229Y0317220D01*
X0092312Y0317211D01*
X0092395Y0317198D01*
X0092476Y0317182D01*
X0092557Y0317161D01*
X0092637Y0317137D01*
X0092716Y0317109D01*
X0092793Y0317077D01*
X0092869Y0317042D01*
X0092943Y0317003D01*
X0093015Y0316961D01*
X0093085Y0316915D01*
X0093152Y0316866D01*
X0093218Y0316814D01*
X0093280Y0316759D01*
X0093341Y0316701D01*
X0093398Y0316640D01*
X0093452Y0316577D01*
X0093503Y0316511D01*
X0093552Y0316442D01*
X0093596Y0316372D01*
X0093638Y0316299D01*
X0093676Y0316225D01*
X0093710Y0316149D01*
X0093741Y0316071D01*
X0093768Y0315992D01*
X0093792Y0315912D01*
X0093811Y0315831D01*
X0093827Y0315749D01*
X0093839Y0315666D01*
X0093847Y0315583D01*
X0093851Y0315500D01*
X0093851Y0315416D01*
X0093847Y0315333D01*
X0093839Y0315250D01*
X0093827Y0315167D01*
X0093811Y0315085D01*
X0093792Y0315004D01*
X0093768Y0314924D01*
X0093741Y0314845D01*
X0093710Y0314767D01*
X0093676Y0314691D01*
X0093638Y0314617D01*
X0093596Y0314544D01*
X0093552Y0314474D01*
X0093503Y0314405D01*
X0093452Y0314339D01*
X0093398Y0314276D01*
X0093341Y0314215D01*
X0093280Y0314157D01*
X0093218Y0314102D01*
X0093152Y0314050D01*
X0093085Y0314001D01*
X0093015Y0313955D01*
X0092943Y0313913D01*
X0092869Y0313874D01*
X0092793Y0313839D01*
X0092716Y0313807D01*
X0092637Y0313779D01*
X0092557Y0313755D01*
X0092476Y0313734D01*
X0092395Y0313718D01*
X0092312Y0313705D01*
X0092229Y0313696D01*
X0092146Y0313691D01*
X0092062Y0313690D01*
X0091979Y0313693D01*
X0091895Y0313700D01*
X0091813Y0313711D01*
X0091730Y0313726D01*
X0091649Y0313744D01*
X0091569Y0313767D01*
X0091489Y0313793D01*
X0091411Y0313823D01*
X0091335Y0313856D01*
X0091260Y0313893D01*
X0091187Y0313934D01*
X0091116Y0313978D01*
X0091047Y0314025D01*
X0090981Y0314076D01*
X0090917Y0314129D01*
X0090855Y0314186D01*
X0090796Y0314245D01*
X0090741Y0314307D01*
X0090688Y0314372D01*
X0090638Y0314439D01*
X0090592Y0314509D01*
X0090548Y0314580D01*
X0090509Y0314653D01*
X0090472Y0314729D01*
X0090440Y0314806D01*
X0090411Y0314884D01*
X0090386Y0314964D01*
X0090364Y0315044D01*
X0090346Y0315126D01*
X0090333Y0315208D01*
X0090323Y0315291D01*
X0090317Y0315375D01*
X0090315Y0315458D01*
X0096197Y0338583D02*
X0096197Y0348583D01*
X0076197Y0348583D02*
X0076197Y0338583D01*
X0056197Y0338583D02*
X0056197Y0349833D01*
X0056197Y0338583D02*
X0033697Y0338583D01*
X0132022Y0303333D02*
X0132024Y0303425D01*
X0132030Y0303516D01*
X0132040Y0303607D01*
X0132054Y0303698D01*
X0132072Y0303788D01*
X0132094Y0303877D01*
X0132119Y0303964D01*
X0132149Y0304051D01*
X0132182Y0304137D01*
X0132219Y0304220D01*
X0132259Y0304303D01*
X0132303Y0304383D01*
X0132351Y0304461D01*
X0132402Y0304538D01*
X0132456Y0304611D01*
X0132513Y0304683D01*
X0132574Y0304752D01*
X0132637Y0304818D01*
X0132703Y0304881D01*
X0132772Y0304942D01*
X0132844Y0304999D01*
X0132917Y0305053D01*
X0132994Y0305104D01*
X0133072Y0305152D01*
X0133152Y0305196D01*
X0133235Y0305236D01*
X0133318Y0305273D01*
X0133404Y0305306D01*
X0133491Y0305336D01*
X0133578Y0305361D01*
X0133667Y0305383D01*
X0133757Y0305401D01*
X0133848Y0305415D01*
X0133939Y0305425D01*
X0134030Y0305431D01*
X0134122Y0305433D01*
X0134214Y0305431D01*
X0134305Y0305425D01*
X0134396Y0305415D01*
X0134487Y0305401D01*
X0134577Y0305383D01*
X0134666Y0305361D01*
X0134753Y0305336D01*
X0134840Y0305306D01*
X0134926Y0305273D01*
X0135009Y0305236D01*
X0135092Y0305196D01*
X0135172Y0305152D01*
X0135250Y0305104D01*
X0135327Y0305053D01*
X0135400Y0304999D01*
X0135472Y0304942D01*
X0135541Y0304881D01*
X0135607Y0304818D01*
X0135670Y0304752D01*
X0135731Y0304683D01*
X0135788Y0304611D01*
X0135842Y0304538D01*
X0135893Y0304461D01*
X0135941Y0304383D01*
X0135985Y0304303D01*
X0136025Y0304220D01*
X0136062Y0304137D01*
X0136095Y0304051D01*
X0136125Y0303964D01*
X0136150Y0303877D01*
X0136172Y0303788D01*
X0136190Y0303698D01*
X0136204Y0303607D01*
X0136214Y0303516D01*
X0136220Y0303425D01*
X0136222Y0303333D01*
X0136220Y0303241D01*
X0136214Y0303150D01*
X0136204Y0303059D01*
X0136190Y0302968D01*
X0136172Y0302878D01*
X0136150Y0302789D01*
X0136125Y0302702D01*
X0136095Y0302615D01*
X0136062Y0302529D01*
X0136025Y0302446D01*
X0135985Y0302363D01*
X0135941Y0302283D01*
X0135893Y0302205D01*
X0135842Y0302128D01*
X0135788Y0302055D01*
X0135731Y0301983D01*
X0135670Y0301914D01*
X0135607Y0301848D01*
X0135541Y0301785D01*
X0135472Y0301724D01*
X0135400Y0301667D01*
X0135327Y0301613D01*
X0135250Y0301562D01*
X0135172Y0301514D01*
X0135092Y0301470D01*
X0135009Y0301430D01*
X0134926Y0301393D01*
X0134840Y0301360D01*
X0134753Y0301330D01*
X0134666Y0301305D01*
X0134577Y0301283D01*
X0134487Y0301265D01*
X0134396Y0301251D01*
X0134305Y0301241D01*
X0134214Y0301235D01*
X0134122Y0301233D01*
X0134030Y0301235D01*
X0133939Y0301241D01*
X0133848Y0301251D01*
X0133757Y0301265D01*
X0133667Y0301283D01*
X0133578Y0301305D01*
X0133491Y0301330D01*
X0133404Y0301360D01*
X0133318Y0301393D01*
X0133235Y0301430D01*
X0133152Y0301470D01*
X0133072Y0301514D01*
X0132994Y0301562D01*
X0132917Y0301613D01*
X0132844Y0301667D01*
X0132772Y0301724D01*
X0132703Y0301785D01*
X0132637Y0301848D01*
X0132574Y0301914D01*
X0132513Y0301983D01*
X0132456Y0302055D01*
X0132402Y0302128D01*
X0132351Y0302205D01*
X0132303Y0302283D01*
X0132259Y0302363D01*
X0132219Y0302446D01*
X0132182Y0302529D01*
X0132149Y0302615D01*
X0132119Y0302702D01*
X0132094Y0302789D01*
X0132072Y0302878D01*
X0132054Y0302968D01*
X0132040Y0303059D01*
X0132030Y0303150D01*
X0132024Y0303241D01*
X0132022Y0303333D01*
X0213844Y0315237D02*
X0226049Y0315237D01*
X0226049Y0321930D01*
X0213844Y0321930D01*
X0213844Y0315237D01*
X0249947Y0304833D02*
X0249947Y0332333D01*
X0259356Y0287766D02*
X0259356Y0207530D01*
X0300537Y0207530D01*
X0300537Y0287766D01*
X0259356Y0287766D01*
X0249543Y0272186D02*
X0242850Y0272186D01*
X0242850Y0259981D01*
X0249543Y0259981D01*
X0249543Y0272186D01*
X0302850Y0272186D02*
X0302850Y0259981D01*
X0309543Y0259981D01*
X0309543Y0272186D01*
X0302850Y0272186D01*
X0319356Y0287766D02*
X0319356Y0207530D01*
X0360537Y0207530D01*
X0360537Y0287766D01*
X0319356Y0287766D01*
X0362850Y0272186D02*
X0362850Y0259981D01*
X0369543Y0259981D01*
X0369543Y0272186D01*
X0362850Y0272186D01*
X0293559Y0167776D02*
X0288835Y0167776D01*
X0288835Y0163446D01*
X0285291Y0163446D01*
X0285291Y0154390D01*
X0289622Y0154390D01*
X0289622Y0158721D01*
X0292772Y0158721D01*
X0292772Y0154390D01*
X0297102Y0154390D01*
X0297102Y0163446D01*
X0293559Y0163446D01*
X0293559Y0167776D01*
X0284543Y0167186D02*
X0277850Y0167186D01*
X0277850Y0154981D01*
X0284543Y0154981D01*
X0284543Y0167186D01*
X0277043Y0167186D02*
X0270350Y0167186D01*
X0270350Y0154981D01*
X0277043Y0154981D01*
X0277043Y0167186D01*
X0269602Y0163446D02*
X0269602Y0154390D01*
X0265272Y0154390D01*
X0265272Y0158721D01*
X0262122Y0158721D01*
X0262122Y0154390D01*
X0257791Y0154390D01*
X0257791Y0163446D01*
X0261335Y0163446D01*
X0261335Y0167776D01*
X0266059Y0167776D01*
X0266059Y0163446D01*
X0269602Y0163446D01*
X0257102Y0163446D02*
X0257102Y0154390D01*
X0252772Y0154390D01*
X0252772Y0158721D01*
X0249622Y0158721D01*
X0249622Y0154390D01*
X0245291Y0154390D01*
X0245291Y0163446D01*
X0248835Y0163446D01*
X0248835Y0167776D01*
X0253559Y0167776D01*
X0253559Y0163446D01*
X0257102Y0163446D01*
X0244543Y0167186D02*
X0244543Y0154981D01*
X0237850Y0154981D01*
X0237850Y0167186D01*
X0244543Y0167186D01*
X0215783Y0157412D02*
X0201610Y0157412D01*
X0201610Y0117255D01*
X0215783Y0117255D01*
X0215783Y0157412D01*
X0202598Y0154656D02*
X0202600Y0154739D01*
X0202606Y0154823D01*
X0202616Y0154906D01*
X0202629Y0154988D01*
X0202647Y0155070D01*
X0202669Y0155150D01*
X0202694Y0155230D01*
X0202723Y0155308D01*
X0202755Y0155385D01*
X0202792Y0155461D01*
X0202831Y0155534D01*
X0202875Y0155605D01*
X0202921Y0155675D01*
X0202971Y0155742D01*
X0203024Y0155807D01*
X0203079Y0155869D01*
X0203138Y0155928D01*
X0203200Y0155985D01*
X0203264Y0156038D01*
X0203330Y0156089D01*
X0203399Y0156136D01*
X0203470Y0156180D01*
X0203543Y0156221D01*
X0203618Y0156258D01*
X0203694Y0156291D01*
X0203772Y0156321D01*
X0203852Y0156347D01*
X0203932Y0156370D01*
X0204013Y0156388D01*
X0204096Y0156403D01*
X0204178Y0156414D01*
X0204262Y0156421D01*
X0204345Y0156424D01*
X0204429Y0156423D01*
X0204512Y0156418D01*
X0204595Y0156409D01*
X0204678Y0156396D01*
X0204759Y0156380D01*
X0204840Y0156359D01*
X0204920Y0156335D01*
X0204999Y0156307D01*
X0205076Y0156275D01*
X0205152Y0156240D01*
X0205226Y0156201D01*
X0205298Y0156159D01*
X0205368Y0156113D01*
X0205435Y0156064D01*
X0205501Y0156012D01*
X0205563Y0155957D01*
X0205624Y0155899D01*
X0205681Y0155838D01*
X0205735Y0155775D01*
X0205786Y0155709D01*
X0205835Y0155640D01*
X0205879Y0155570D01*
X0205921Y0155497D01*
X0205959Y0155423D01*
X0205993Y0155347D01*
X0206024Y0155269D01*
X0206051Y0155190D01*
X0206075Y0155110D01*
X0206094Y0155029D01*
X0206110Y0154947D01*
X0206122Y0154864D01*
X0206130Y0154781D01*
X0206134Y0154698D01*
X0206134Y0154614D01*
X0206130Y0154531D01*
X0206122Y0154448D01*
X0206110Y0154365D01*
X0206094Y0154283D01*
X0206075Y0154202D01*
X0206051Y0154122D01*
X0206024Y0154043D01*
X0205993Y0153965D01*
X0205959Y0153889D01*
X0205921Y0153815D01*
X0205879Y0153742D01*
X0205835Y0153672D01*
X0205786Y0153603D01*
X0205735Y0153537D01*
X0205681Y0153474D01*
X0205624Y0153413D01*
X0205563Y0153355D01*
X0205501Y0153300D01*
X0205435Y0153248D01*
X0205368Y0153199D01*
X0205298Y0153153D01*
X0205226Y0153111D01*
X0205152Y0153072D01*
X0205076Y0153037D01*
X0204999Y0153005D01*
X0204920Y0152977D01*
X0204840Y0152953D01*
X0204759Y0152932D01*
X0204678Y0152916D01*
X0204595Y0152903D01*
X0204512Y0152894D01*
X0204429Y0152889D01*
X0204345Y0152888D01*
X0204262Y0152891D01*
X0204178Y0152898D01*
X0204096Y0152909D01*
X0204013Y0152924D01*
X0203932Y0152942D01*
X0203852Y0152965D01*
X0203772Y0152991D01*
X0203694Y0153021D01*
X0203618Y0153054D01*
X0203543Y0153091D01*
X0203470Y0153132D01*
X0203399Y0153176D01*
X0203330Y0153223D01*
X0203264Y0153274D01*
X0203200Y0153327D01*
X0203138Y0153384D01*
X0203079Y0153443D01*
X0203024Y0153505D01*
X0202971Y0153570D01*
X0202921Y0153637D01*
X0202875Y0153707D01*
X0202831Y0153778D01*
X0202792Y0153851D01*
X0202755Y0153927D01*
X0202723Y0154004D01*
X0202694Y0154082D01*
X0202669Y0154162D01*
X0202647Y0154242D01*
X0202629Y0154324D01*
X0202616Y0154406D01*
X0202606Y0154489D01*
X0202600Y0154573D01*
X0202598Y0154656D01*
X0235291Y0132776D02*
X0235291Y0123721D01*
X0238835Y0123721D01*
X0238835Y0119390D01*
X0243559Y0119390D01*
X0243559Y0123721D01*
X0247102Y0123721D01*
X0247102Y0132776D01*
X0242772Y0132776D01*
X0242772Y0128446D01*
X0239622Y0128446D01*
X0239622Y0132776D01*
X0235291Y0132776D01*
X0247850Y0132186D02*
X0247850Y0119981D01*
X0254543Y0119981D01*
X0254543Y0132186D01*
X0247850Y0132186D01*
X0257850Y0132186D02*
X0257850Y0119981D01*
X0264543Y0119981D01*
X0264543Y0132186D01*
X0257850Y0132186D01*
X0267850Y0132186D02*
X0267850Y0119981D01*
X0274543Y0119981D01*
X0274543Y0132186D01*
X0267850Y0132186D01*
X0277850Y0132186D02*
X0277850Y0119981D01*
X0284543Y0119981D01*
X0284543Y0132186D01*
X0277850Y0132186D01*
X0287850Y0132186D02*
X0287850Y0119981D01*
X0294543Y0119981D01*
X0294543Y0132186D01*
X0287850Y0132186D01*
X0314110Y0117255D02*
X0314110Y0157412D01*
X0328283Y0157412D01*
X0328283Y0117255D01*
X0314110Y0117255D01*
X0323760Y0120010D02*
X0323762Y0120093D01*
X0323768Y0120177D01*
X0323778Y0120260D01*
X0323791Y0120342D01*
X0323809Y0120424D01*
X0323831Y0120504D01*
X0323856Y0120584D01*
X0323885Y0120662D01*
X0323917Y0120739D01*
X0323954Y0120815D01*
X0323993Y0120888D01*
X0324037Y0120959D01*
X0324083Y0121029D01*
X0324133Y0121096D01*
X0324186Y0121161D01*
X0324241Y0121223D01*
X0324300Y0121282D01*
X0324362Y0121339D01*
X0324426Y0121392D01*
X0324492Y0121443D01*
X0324561Y0121490D01*
X0324632Y0121534D01*
X0324705Y0121575D01*
X0324780Y0121612D01*
X0324856Y0121645D01*
X0324934Y0121675D01*
X0325014Y0121701D01*
X0325094Y0121724D01*
X0325175Y0121742D01*
X0325258Y0121757D01*
X0325340Y0121768D01*
X0325424Y0121775D01*
X0325507Y0121778D01*
X0325591Y0121777D01*
X0325674Y0121772D01*
X0325757Y0121763D01*
X0325840Y0121750D01*
X0325921Y0121734D01*
X0326002Y0121713D01*
X0326082Y0121689D01*
X0326161Y0121661D01*
X0326238Y0121629D01*
X0326314Y0121594D01*
X0326388Y0121555D01*
X0326460Y0121513D01*
X0326530Y0121467D01*
X0326597Y0121418D01*
X0326663Y0121366D01*
X0326725Y0121311D01*
X0326786Y0121253D01*
X0326843Y0121192D01*
X0326897Y0121129D01*
X0326948Y0121063D01*
X0326997Y0120994D01*
X0327041Y0120924D01*
X0327083Y0120851D01*
X0327121Y0120777D01*
X0327155Y0120701D01*
X0327186Y0120623D01*
X0327213Y0120544D01*
X0327237Y0120464D01*
X0327256Y0120383D01*
X0327272Y0120301D01*
X0327284Y0120218D01*
X0327292Y0120135D01*
X0327296Y0120052D01*
X0327296Y0119968D01*
X0327292Y0119885D01*
X0327284Y0119802D01*
X0327272Y0119719D01*
X0327256Y0119637D01*
X0327237Y0119556D01*
X0327213Y0119476D01*
X0327186Y0119397D01*
X0327155Y0119319D01*
X0327121Y0119243D01*
X0327083Y0119169D01*
X0327041Y0119096D01*
X0326997Y0119026D01*
X0326948Y0118957D01*
X0326897Y0118891D01*
X0326843Y0118828D01*
X0326786Y0118767D01*
X0326725Y0118709D01*
X0326663Y0118654D01*
X0326597Y0118602D01*
X0326530Y0118553D01*
X0326460Y0118507D01*
X0326388Y0118465D01*
X0326314Y0118426D01*
X0326238Y0118391D01*
X0326161Y0118359D01*
X0326082Y0118331D01*
X0326002Y0118307D01*
X0325921Y0118286D01*
X0325840Y0118270D01*
X0325757Y0118257D01*
X0325674Y0118248D01*
X0325591Y0118243D01*
X0325507Y0118242D01*
X0325424Y0118245D01*
X0325340Y0118252D01*
X0325258Y0118263D01*
X0325175Y0118278D01*
X0325094Y0118296D01*
X0325014Y0118319D01*
X0324934Y0118345D01*
X0324856Y0118375D01*
X0324780Y0118408D01*
X0324705Y0118445D01*
X0324632Y0118486D01*
X0324561Y0118530D01*
X0324492Y0118577D01*
X0324426Y0118628D01*
X0324362Y0118681D01*
X0324300Y0118738D01*
X0324241Y0118797D01*
X0324186Y0118859D01*
X0324133Y0118924D01*
X0324083Y0118991D01*
X0324037Y0119061D01*
X0323993Y0119132D01*
X0323954Y0119205D01*
X0323917Y0119281D01*
X0323885Y0119358D01*
X0323856Y0119436D01*
X0323831Y0119516D01*
X0323809Y0119596D01*
X0323791Y0119678D01*
X0323778Y0119760D01*
X0323768Y0119843D01*
X0323762Y0119927D01*
X0323760Y0120010D01*
X0303697Y0104833D02*
X0303697Y0097333D01*
X0223697Y0097333D01*
X0223697Y0104833D01*
X0303697Y0104833D01*
X0303697Y0097333D02*
X0303697Y0078583D01*
X0223697Y0078583D01*
X0223697Y0097333D01*
X0202697Y0098583D02*
X0199697Y0098583D01*
X0201197Y0097083D02*
X0201197Y0100083D01*
X0176512Y0083583D02*
X0176518Y0084066D01*
X0176536Y0084549D01*
X0176565Y0085031D01*
X0176607Y0085512D01*
X0176660Y0085993D01*
X0176725Y0086471D01*
X0176802Y0086948D01*
X0176890Y0087423D01*
X0176990Y0087896D01*
X0177102Y0088366D01*
X0177225Y0088833D01*
X0177360Y0089297D01*
X0177506Y0089758D01*
X0177663Y0090215D01*
X0177831Y0090668D01*
X0178010Y0091116D01*
X0178201Y0091560D01*
X0178402Y0091999D01*
X0178614Y0092434D01*
X0178836Y0092862D01*
X0179069Y0093286D01*
X0179313Y0093703D01*
X0179566Y0094114D01*
X0179830Y0094519D01*
X0180103Y0094918D01*
X0180386Y0095309D01*
X0180678Y0095694D01*
X0180980Y0096071D01*
X0181291Y0096441D01*
X0181611Y0096803D01*
X0181940Y0097157D01*
X0182278Y0097502D01*
X0182623Y0097840D01*
X0182977Y0098169D01*
X0183339Y0098489D01*
X0183709Y0098800D01*
X0184086Y0099102D01*
X0184471Y0099394D01*
X0184862Y0099677D01*
X0185261Y0099950D01*
X0185666Y0100214D01*
X0186077Y0100467D01*
X0186494Y0100711D01*
X0186918Y0100944D01*
X0187346Y0101166D01*
X0187781Y0101378D01*
X0188220Y0101579D01*
X0188664Y0101770D01*
X0189112Y0101949D01*
X0189565Y0102117D01*
X0190022Y0102274D01*
X0190483Y0102420D01*
X0190947Y0102555D01*
X0191414Y0102678D01*
X0191884Y0102790D01*
X0192357Y0102890D01*
X0192832Y0102978D01*
X0193309Y0103055D01*
X0193787Y0103120D01*
X0194268Y0103173D01*
X0194749Y0103215D01*
X0195231Y0103244D01*
X0195714Y0103262D01*
X0196197Y0103268D01*
X0196680Y0103262D01*
X0197163Y0103244D01*
X0197645Y0103215D01*
X0198126Y0103173D01*
X0198607Y0103120D01*
X0199085Y0103055D01*
X0199562Y0102978D01*
X0200037Y0102890D01*
X0200510Y0102790D01*
X0200980Y0102678D01*
X0201447Y0102555D01*
X0201911Y0102420D01*
X0202372Y0102274D01*
X0202829Y0102117D01*
X0203282Y0101949D01*
X0203730Y0101770D01*
X0204174Y0101579D01*
X0204613Y0101378D01*
X0205048Y0101166D01*
X0205476Y0100944D01*
X0205900Y0100711D01*
X0206317Y0100467D01*
X0206728Y0100214D01*
X0207133Y0099950D01*
X0207532Y0099677D01*
X0207923Y0099394D01*
X0208308Y0099102D01*
X0208685Y0098800D01*
X0209055Y0098489D01*
X0209417Y0098169D01*
X0209771Y0097840D01*
X0210116Y0097502D01*
X0210454Y0097157D01*
X0210783Y0096803D01*
X0211103Y0096441D01*
X0211414Y0096071D01*
X0211716Y0095694D01*
X0212008Y0095309D01*
X0212291Y0094918D01*
X0212564Y0094519D01*
X0212828Y0094114D01*
X0213081Y0093703D01*
X0213325Y0093286D01*
X0213558Y0092862D01*
X0213780Y0092434D01*
X0213992Y0091999D01*
X0214193Y0091560D01*
X0214384Y0091116D01*
X0214563Y0090668D01*
X0214731Y0090215D01*
X0214888Y0089758D01*
X0215034Y0089297D01*
X0215169Y0088833D01*
X0215292Y0088366D01*
X0215404Y0087896D01*
X0215504Y0087423D01*
X0215592Y0086948D01*
X0215669Y0086471D01*
X0215734Y0085993D01*
X0215787Y0085512D01*
X0215829Y0085031D01*
X0215858Y0084549D01*
X0215876Y0084066D01*
X0215882Y0083583D01*
X0215876Y0083100D01*
X0215858Y0082617D01*
X0215829Y0082135D01*
X0215787Y0081654D01*
X0215734Y0081173D01*
X0215669Y0080695D01*
X0215592Y0080218D01*
X0215504Y0079743D01*
X0215404Y0079270D01*
X0215292Y0078800D01*
X0215169Y0078333D01*
X0215034Y0077869D01*
X0214888Y0077408D01*
X0214731Y0076951D01*
X0214563Y0076498D01*
X0214384Y0076050D01*
X0214193Y0075606D01*
X0213992Y0075167D01*
X0213780Y0074732D01*
X0213558Y0074304D01*
X0213325Y0073880D01*
X0213081Y0073463D01*
X0212828Y0073052D01*
X0212564Y0072647D01*
X0212291Y0072248D01*
X0212008Y0071857D01*
X0211716Y0071472D01*
X0211414Y0071095D01*
X0211103Y0070725D01*
X0210783Y0070363D01*
X0210454Y0070009D01*
X0210116Y0069664D01*
X0209771Y0069326D01*
X0209417Y0068997D01*
X0209055Y0068677D01*
X0208685Y0068366D01*
X0208308Y0068064D01*
X0207923Y0067772D01*
X0207532Y0067489D01*
X0207133Y0067216D01*
X0206728Y0066952D01*
X0206317Y0066699D01*
X0205900Y0066455D01*
X0205476Y0066222D01*
X0205048Y0066000D01*
X0204613Y0065788D01*
X0204174Y0065587D01*
X0203730Y0065396D01*
X0203282Y0065217D01*
X0202829Y0065049D01*
X0202372Y0064892D01*
X0201911Y0064746D01*
X0201447Y0064611D01*
X0200980Y0064488D01*
X0200510Y0064376D01*
X0200037Y0064276D01*
X0199562Y0064188D01*
X0199085Y0064111D01*
X0198607Y0064046D01*
X0198126Y0063993D01*
X0197645Y0063951D01*
X0197163Y0063922D01*
X0196680Y0063904D01*
X0196197Y0063898D01*
X0195714Y0063904D01*
X0195231Y0063922D01*
X0194749Y0063951D01*
X0194268Y0063993D01*
X0193787Y0064046D01*
X0193309Y0064111D01*
X0192832Y0064188D01*
X0192357Y0064276D01*
X0191884Y0064376D01*
X0191414Y0064488D01*
X0190947Y0064611D01*
X0190483Y0064746D01*
X0190022Y0064892D01*
X0189565Y0065049D01*
X0189112Y0065217D01*
X0188664Y0065396D01*
X0188220Y0065587D01*
X0187781Y0065788D01*
X0187346Y0066000D01*
X0186918Y0066222D01*
X0186494Y0066455D01*
X0186077Y0066699D01*
X0185666Y0066952D01*
X0185261Y0067216D01*
X0184862Y0067489D01*
X0184471Y0067772D01*
X0184086Y0068064D01*
X0183709Y0068366D01*
X0183339Y0068677D01*
X0182977Y0068997D01*
X0182623Y0069326D01*
X0182278Y0069664D01*
X0181940Y0070009D01*
X0181611Y0070363D01*
X0181291Y0070725D01*
X0180980Y0071095D01*
X0180678Y0071472D01*
X0180386Y0071857D01*
X0180103Y0072248D01*
X0179830Y0072647D01*
X0179566Y0073052D01*
X0179313Y0073463D01*
X0179069Y0073880D01*
X0178836Y0074304D01*
X0178614Y0074732D01*
X0178402Y0075167D01*
X0178201Y0075606D01*
X0178010Y0076050D01*
X0177831Y0076498D01*
X0177663Y0076951D01*
X0177506Y0077408D01*
X0177360Y0077869D01*
X0177225Y0078333D01*
X0177102Y0078800D01*
X0176990Y0079270D01*
X0176890Y0079743D01*
X0176802Y0080218D01*
X0176725Y0080695D01*
X0176660Y0081173D01*
X0176607Y0081654D01*
X0176565Y0082135D01*
X0176536Y0082617D01*
X0176518Y0083100D01*
X0176512Y0083583D01*
X0159447Y0042833D02*
X0159447Y0033833D01*
X0159447Y0042833D02*
X0060447Y0042833D01*
X0060447Y0033833D01*
X0056197Y0028583D02*
X0032447Y0028583D01*
X0060447Y0020833D02*
X0060447Y0011833D01*
X0159447Y0011833D01*
X0159447Y0020833D01*
X0189697Y0024833D02*
X0192697Y0024833D01*
X0191197Y0026333D02*
X0191197Y0023333D01*
X0176512Y0039833D02*
X0176518Y0040316D01*
X0176536Y0040799D01*
X0176565Y0041281D01*
X0176607Y0041762D01*
X0176660Y0042243D01*
X0176725Y0042721D01*
X0176802Y0043198D01*
X0176890Y0043673D01*
X0176990Y0044146D01*
X0177102Y0044616D01*
X0177225Y0045083D01*
X0177360Y0045547D01*
X0177506Y0046008D01*
X0177663Y0046465D01*
X0177831Y0046918D01*
X0178010Y0047366D01*
X0178201Y0047810D01*
X0178402Y0048249D01*
X0178614Y0048684D01*
X0178836Y0049112D01*
X0179069Y0049536D01*
X0179313Y0049953D01*
X0179566Y0050364D01*
X0179830Y0050769D01*
X0180103Y0051168D01*
X0180386Y0051559D01*
X0180678Y0051944D01*
X0180980Y0052321D01*
X0181291Y0052691D01*
X0181611Y0053053D01*
X0181940Y0053407D01*
X0182278Y0053752D01*
X0182623Y0054090D01*
X0182977Y0054419D01*
X0183339Y0054739D01*
X0183709Y0055050D01*
X0184086Y0055352D01*
X0184471Y0055644D01*
X0184862Y0055927D01*
X0185261Y0056200D01*
X0185666Y0056464D01*
X0186077Y0056717D01*
X0186494Y0056961D01*
X0186918Y0057194D01*
X0187346Y0057416D01*
X0187781Y0057628D01*
X0188220Y0057829D01*
X0188664Y0058020D01*
X0189112Y0058199D01*
X0189565Y0058367D01*
X0190022Y0058524D01*
X0190483Y0058670D01*
X0190947Y0058805D01*
X0191414Y0058928D01*
X0191884Y0059040D01*
X0192357Y0059140D01*
X0192832Y0059228D01*
X0193309Y0059305D01*
X0193787Y0059370D01*
X0194268Y0059423D01*
X0194749Y0059465D01*
X0195231Y0059494D01*
X0195714Y0059512D01*
X0196197Y0059518D01*
X0196680Y0059512D01*
X0197163Y0059494D01*
X0197645Y0059465D01*
X0198126Y0059423D01*
X0198607Y0059370D01*
X0199085Y0059305D01*
X0199562Y0059228D01*
X0200037Y0059140D01*
X0200510Y0059040D01*
X0200980Y0058928D01*
X0201447Y0058805D01*
X0201911Y0058670D01*
X0202372Y0058524D01*
X0202829Y0058367D01*
X0203282Y0058199D01*
X0203730Y0058020D01*
X0204174Y0057829D01*
X0204613Y0057628D01*
X0205048Y0057416D01*
X0205476Y0057194D01*
X0205900Y0056961D01*
X0206317Y0056717D01*
X0206728Y0056464D01*
X0207133Y0056200D01*
X0207532Y0055927D01*
X0207923Y0055644D01*
X0208308Y0055352D01*
X0208685Y0055050D01*
X0209055Y0054739D01*
X0209417Y0054419D01*
X0209771Y0054090D01*
X0210116Y0053752D01*
X0210454Y0053407D01*
X0210783Y0053053D01*
X0211103Y0052691D01*
X0211414Y0052321D01*
X0211716Y0051944D01*
X0212008Y0051559D01*
X0212291Y0051168D01*
X0212564Y0050769D01*
X0212828Y0050364D01*
X0213081Y0049953D01*
X0213325Y0049536D01*
X0213558Y0049112D01*
X0213780Y0048684D01*
X0213992Y0048249D01*
X0214193Y0047810D01*
X0214384Y0047366D01*
X0214563Y0046918D01*
X0214731Y0046465D01*
X0214888Y0046008D01*
X0215034Y0045547D01*
X0215169Y0045083D01*
X0215292Y0044616D01*
X0215404Y0044146D01*
X0215504Y0043673D01*
X0215592Y0043198D01*
X0215669Y0042721D01*
X0215734Y0042243D01*
X0215787Y0041762D01*
X0215829Y0041281D01*
X0215858Y0040799D01*
X0215876Y0040316D01*
X0215882Y0039833D01*
X0215876Y0039350D01*
X0215858Y0038867D01*
X0215829Y0038385D01*
X0215787Y0037904D01*
X0215734Y0037423D01*
X0215669Y0036945D01*
X0215592Y0036468D01*
X0215504Y0035993D01*
X0215404Y0035520D01*
X0215292Y0035050D01*
X0215169Y0034583D01*
X0215034Y0034119D01*
X0214888Y0033658D01*
X0214731Y0033201D01*
X0214563Y0032748D01*
X0214384Y0032300D01*
X0214193Y0031856D01*
X0213992Y0031417D01*
X0213780Y0030982D01*
X0213558Y0030554D01*
X0213325Y0030130D01*
X0213081Y0029713D01*
X0212828Y0029302D01*
X0212564Y0028897D01*
X0212291Y0028498D01*
X0212008Y0028107D01*
X0211716Y0027722D01*
X0211414Y0027345D01*
X0211103Y0026975D01*
X0210783Y0026613D01*
X0210454Y0026259D01*
X0210116Y0025914D01*
X0209771Y0025576D01*
X0209417Y0025247D01*
X0209055Y0024927D01*
X0208685Y0024616D01*
X0208308Y0024314D01*
X0207923Y0024022D01*
X0207532Y0023739D01*
X0207133Y0023466D01*
X0206728Y0023202D01*
X0206317Y0022949D01*
X0205900Y0022705D01*
X0205476Y0022472D01*
X0205048Y0022250D01*
X0204613Y0022038D01*
X0204174Y0021837D01*
X0203730Y0021646D01*
X0203282Y0021467D01*
X0202829Y0021299D01*
X0202372Y0021142D01*
X0201911Y0020996D01*
X0201447Y0020861D01*
X0200980Y0020738D01*
X0200510Y0020626D01*
X0200037Y0020526D01*
X0199562Y0020438D01*
X0199085Y0020361D01*
X0198607Y0020296D01*
X0198126Y0020243D01*
X0197645Y0020201D01*
X0197163Y0020172D01*
X0196680Y0020154D01*
X0196197Y0020148D01*
X0195714Y0020154D01*
X0195231Y0020172D01*
X0194749Y0020201D01*
X0194268Y0020243D01*
X0193787Y0020296D01*
X0193309Y0020361D01*
X0192832Y0020438D01*
X0192357Y0020526D01*
X0191884Y0020626D01*
X0191414Y0020738D01*
X0190947Y0020861D01*
X0190483Y0020996D01*
X0190022Y0021142D01*
X0189565Y0021299D01*
X0189112Y0021467D01*
X0188664Y0021646D01*
X0188220Y0021837D01*
X0187781Y0022038D01*
X0187346Y0022250D01*
X0186918Y0022472D01*
X0186494Y0022705D01*
X0186077Y0022949D01*
X0185666Y0023202D01*
X0185261Y0023466D01*
X0184862Y0023739D01*
X0184471Y0024022D01*
X0184086Y0024314D01*
X0183709Y0024616D01*
X0183339Y0024927D01*
X0182977Y0025247D01*
X0182623Y0025576D01*
X0182278Y0025914D01*
X0181940Y0026259D01*
X0181611Y0026613D01*
X0181291Y0026975D01*
X0180980Y0027345D01*
X0180678Y0027722D01*
X0180386Y0028107D01*
X0180103Y0028498D01*
X0179830Y0028897D01*
X0179566Y0029302D01*
X0179313Y0029713D01*
X0179069Y0030130D01*
X0178836Y0030554D01*
X0178614Y0030982D01*
X0178402Y0031417D01*
X0178201Y0031856D01*
X0178010Y0032300D01*
X0177831Y0032748D01*
X0177663Y0033201D01*
X0177506Y0033658D01*
X0177360Y0034119D01*
X0177225Y0034583D01*
X0177102Y0035050D01*
X0176990Y0035520D01*
X0176890Y0035993D01*
X0176802Y0036468D01*
X0176725Y0036945D01*
X0176660Y0037423D01*
X0176607Y0037904D01*
X0176565Y0038385D01*
X0176536Y0038867D01*
X0176518Y0039350D01*
X0176512Y0039833D01*
X0223697Y0039833D02*
X0223697Y0012333D01*
X0303697Y0012333D01*
X0303697Y0039833D01*
X0223697Y0039833D01*
X0223697Y0047333D01*
X0303697Y0047333D01*
X0303697Y0039833D01*
X0302299Y0038180D02*
X0302299Y0031487D01*
X0290094Y0031487D01*
X0290094Y0038180D01*
X0302299Y0038180D01*
X0302299Y0029430D02*
X0290094Y0029430D01*
X0290094Y0022737D01*
X0302299Y0022737D01*
X0302299Y0029430D01*
X0302299Y0020680D02*
X0302299Y0013987D01*
X0290094Y0013987D01*
X0290094Y0020680D01*
X0302299Y0020680D01*
X0288549Y0020680D02*
X0288549Y0013987D01*
X0276344Y0013987D01*
X0276344Y0020680D01*
X0288549Y0020680D01*
X0288549Y0022737D02*
X0288549Y0029430D01*
X0276344Y0029430D01*
X0276344Y0022737D01*
X0288549Y0022737D01*
X0288549Y0031487D02*
X0288549Y0038180D01*
X0276344Y0038180D01*
X0276344Y0031487D01*
X0288549Y0031487D01*
X0288549Y0051487D02*
X0276344Y0051487D01*
X0276344Y0058180D01*
X0288549Y0058180D01*
X0288549Y0051487D01*
X0290094Y0051487D02*
X0302299Y0051487D01*
X0302299Y0058180D01*
X0290094Y0058180D01*
X0290094Y0051487D01*
X0290094Y0060237D02*
X0302299Y0060237D01*
X0302299Y0066930D01*
X0290094Y0066930D01*
X0290094Y0060237D01*
X0288549Y0060237D02*
X0288549Y0066930D01*
X0276344Y0066930D01*
X0276344Y0060237D01*
X0288549Y0060237D01*
X0303697Y0068583D02*
X0303697Y0076083D01*
X0223697Y0076083D01*
X0223697Y0068583D01*
X0303697Y0068583D01*
X0303697Y0049833D01*
X0223697Y0049833D01*
X0223697Y0068583D01*
X0276344Y0080237D02*
X0288549Y0080237D01*
X0288549Y0086930D01*
X0276344Y0086930D01*
X0276344Y0080237D01*
X0276344Y0088987D02*
X0288549Y0088987D01*
X0288549Y0095680D01*
X0276344Y0095680D01*
X0276344Y0088987D01*
X0290094Y0088987D02*
X0302299Y0088987D01*
X0302299Y0095680D01*
X0290094Y0095680D01*
X0290094Y0088987D01*
X0290094Y0086930D02*
X0290094Y0080237D01*
X0302299Y0080237D01*
X0302299Y0086930D01*
X0290094Y0086930D01*
D12*
X0276511Y0074838D02*
X0276511Y0069833D01*
X0275677Y0069833D02*
X0277345Y0069833D01*
X0273857Y0069833D02*
X0273857Y0072335D01*
X0273023Y0073170D01*
X0271355Y0073170D01*
X0271355Y0071501D02*
X0273857Y0071501D01*
X0273857Y0069833D02*
X0271355Y0069833D01*
X0270521Y0070667D01*
X0271355Y0071501D01*
X0268700Y0072335D02*
X0268700Y0069833D01*
X0268700Y0072335D02*
X0267866Y0073170D01*
X0265364Y0073170D01*
X0265364Y0069833D01*
X0263569Y0073170D02*
X0262735Y0073170D01*
X0261067Y0071501D01*
X0261067Y0069833D02*
X0261067Y0073170D01*
X0259247Y0072335D02*
X0259247Y0071501D01*
X0255911Y0071501D01*
X0255911Y0070667D02*
X0255911Y0072335D01*
X0256745Y0073170D01*
X0258413Y0073170D01*
X0259247Y0072335D01*
X0258413Y0069833D02*
X0256745Y0069833D01*
X0255911Y0070667D01*
X0254141Y0069833D02*
X0253307Y0070667D01*
X0253307Y0074004D01*
X0252473Y0073170D02*
X0254141Y0073170D01*
X0250653Y0072335D02*
X0250653Y0069833D01*
X0250653Y0072335D02*
X0249819Y0073170D01*
X0247317Y0073170D01*
X0247317Y0069833D01*
X0245547Y0069833D02*
X0243879Y0069833D01*
X0244713Y0069833D02*
X0244713Y0074838D01*
X0243879Y0074838D02*
X0245547Y0074838D01*
X0244443Y0064420D02*
X0244443Y0061917D01*
X0243609Y0061083D01*
X0242775Y0061917D01*
X0241941Y0061083D01*
X0241107Y0061917D01*
X0241107Y0064420D01*
X0239312Y0064420D02*
X0238478Y0064420D01*
X0236810Y0062751D01*
X0236810Y0061083D02*
X0236810Y0064420D01*
X0234989Y0063585D02*
X0234155Y0064420D01*
X0232487Y0064420D01*
X0231653Y0063585D01*
X0231653Y0061917D01*
X0232487Y0061083D01*
X0234155Y0061083D01*
X0234989Y0061917D01*
X0234989Y0063585D01*
X0229833Y0066088D02*
X0226497Y0066088D01*
X0226497Y0061083D01*
X0226497Y0063585D02*
X0228165Y0063585D01*
X0228999Y0057338D02*
X0229833Y0056504D01*
X0229833Y0054835D01*
X0228999Y0054001D01*
X0226497Y0054001D01*
X0226497Y0052333D02*
X0226497Y0057338D01*
X0228999Y0057338D01*
X0228165Y0054001D02*
X0229833Y0052333D01*
X0231653Y0053167D02*
X0231653Y0054835D01*
X0232487Y0055670D01*
X0234155Y0055670D01*
X0234989Y0054835D01*
X0234989Y0054001D01*
X0231653Y0054001D01*
X0231653Y0053167D02*
X0232487Y0052333D01*
X0234155Y0052333D01*
X0236810Y0055670D02*
X0238478Y0052333D01*
X0240146Y0055670D01*
X0241966Y0054835D02*
X0242800Y0055670D01*
X0244468Y0055670D01*
X0245302Y0054835D01*
X0245302Y0054001D01*
X0241966Y0054001D01*
X0241966Y0053167D02*
X0241966Y0054835D01*
X0241966Y0053167D02*
X0242800Y0052333D01*
X0244468Y0052333D01*
X0247122Y0052333D02*
X0247122Y0055670D01*
X0248791Y0055670D02*
X0249625Y0055670D01*
X0248791Y0055670D02*
X0247122Y0054001D01*
X0251419Y0054835D02*
X0252253Y0055670D01*
X0254756Y0055670D01*
X0253922Y0054001D02*
X0252253Y0054001D01*
X0251419Y0054835D01*
X0251419Y0052333D02*
X0253922Y0052333D01*
X0254756Y0053167D01*
X0253922Y0054001D01*
X0256576Y0054001D02*
X0259912Y0054001D01*
X0259912Y0054835D01*
X0259078Y0055670D01*
X0257410Y0055670D01*
X0256576Y0054835D01*
X0256576Y0053167D01*
X0257410Y0052333D01*
X0259078Y0052333D01*
X0259272Y0044420D02*
X0260106Y0043585D01*
X0260106Y0042751D01*
X0256770Y0042751D01*
X0256770Y0041917D02*
X0256770Y0043585D01*
X0257604Y0044420D01*
X0259272Y0044420D01*
X0261927Y0044420D02*
X0261927Y0041083D01*
X0261927Y0042751D02*
X0263595Y0044420D01*
X0264429Y0044420D01*
X0266224Y0044420D02*
X0266224Y0041083D01*
X0269560Y0041083D02*
X0269560Y0043585D01*
X0268726Y0044420D01*
X0266224Y0044420D01*
X0271380Y0041917D02*
X0272214Y0042751D01*
X0274716Y0042751D01*
X0274716Y0043585D02*
X0274716Y0041083D01*
X0272214Y0041083D01*
X0271380Y0041917D01*
X0272214Y0044420D02*
X0273882Y0044420D01*
X0274716Y0043585D01*
X0276536Y0041083D02*
X0278204Y0041083D01*
X0277370Y0041083D02*
X0277370Y0046088D01*
X0276536Y0046088D01*
X0268506Y0037338D02*
X0268506Y0032333D01*
X0265170Y0037338D01*
X0265170Y0032333D01*
X0263350Y0032333D02*
X0260013Y0032333D01*
X0260013Y0037338D01*
X0263350Y0037338D01*
X0261682Y0034835D02*
X0260013Y0034835D01*
X0259272Y0041083D02*
X0257604Y0041083D01*
X0256770Y0041917D01*
X0255001Y0041083D02*
X0254167Y0041917D01*
X0254167Y0045254D01*
X0253333Y0044420D02*
X0255001Y0044420D01*
X0251512Y0044420D02*
X0248176Y0041083D01*
X0246356Y0041083D02*
X0243020Y0041083D01*
X0243020Y0046088D01*
X0246356Y0046088D01*
X0248176Y0044420D02*
X0251512Y0041083D01*
X0252203Y0035670D02*
X0253037Y0034835D01*
X0253037Y0032333D01*
X0249701Y0032333D02*
X0249701Y0035670D01*
X0252203Y0035670D01*
X0247906Y0035670D02*
X0247072Y0035670D01*
X0245404Y0034001D01*
X0245404Y0032333D02*
X0245404Y0035670D01*
X0243583Y0034835D02*
X0243583Y0034001D01*
X0240247Y0034001D01*
X0240247Y0033167D02*
X0240247Y0034835D01*
X0241081Y0035670D01*
X0242749Y0035670D01*
X0243583Y0034835D01*
X0242749Y0032333D02*
X0241081Y0032333D01*
X0240247Y0033167D01*
X0238478Y0032333D02*
X0237644Y0033167D01*
X0237644Y0036504D01*
X0236810Y0035670D02*
X0238478Y0035670D01*
X0234989Y0035670D02*
X0231653Y0032333D01*
X0229833Y0032333D02*
X0226497Y0032333D01*
X0226497Y0037338D01*
X0229833Y0037338D01*
X0231653Y0035670D02*
X0234989Y0032333D01*
X0237644Y0029422D02*
X0237644Y0028588D01*
X0237644Y0026920D02*
X0237644Y0023583D01*
X0236810Y0023583D02*
X0238478Y0023583D01*
X0240247Y0023583D02*
X0240247Y0026920D01*
X0242749Y0026920D01*
X0243583Y0026085D01*
X0243583Y0023583D01*
X0245404Y0024417D02*
X0245404Y0026085D01*
X0246238Y0026920D01*
X0248740Y0026920D01*
X0248740Y0028588D02*
X0248740Y0023583D01*
X0246238Y0023583D01*
X0245404Y0024417D01*
X0250560Y0023583D02*
X0252228Y0023583D01*
X0251394Y0023583D02*
X0251394Y0028588D01*
X0250560Y0028588D01*
X0253998Y0026085D02*
X0253998Y0024417D01*
X0254832Y0023583D01*
X0256500Y0023583D01*
X0257334Y0025251D02*
X0253998Y0025251D01*
X0253998Y0026085D02*
X0254832Y0026920D01*
X0256500Y0026920D01*
X0257334Y0026085D01*
X0257334Y0025251D01*
X0264310Y0024417D02*
X0265144Y0023583D01*
X0266813Y0023583D01*
X0267647Y0024417D01*
X0267647Y0027754D01*
X0266813Y0028588D01*
X0265144Y0028588D01*
X0264310Y0027754D01*
X0264310Y0024417D01*
X0269467Y0023583D02*
X0269467Y0026920D01*
X0271969Y0026920D01*
X0272803Y0026085D01*
X0272803Y0023583D01*
X0259912Y0017335D02*
X0259912Y0016501D01*
X0256576Y0016501D01*
X0256576Y0015667D02*
X0256576Y0017335D01*
X0257410Y0018170D01*
X0259078Y0018170D01*
X0259912Y0017335D01*
X0259078Y0014833D02*
X0257410Y0014833D01*
X0256576Y0015667D01*
X0254756Y0015667D02*
X0253922Y0016501D01*
X0252253Y0016501D01*
X0251419Y0017335D01*
X0252253Y0018170D01*
X0254756Y0018170D01*
X0254756Y0015667D02*
X0253922Y0014833D01*
X0251419Y0014833D01*
X0249625Y0018170D02*
X0248791Y0018170D01*
X0247122Y0016501D01*
X0247122Y0014833D02*
X0247122Y0018170D01*
X0245302Y0017335D02*
X0245302Y0016501D01*
X0241966Y0016501D01*
X0241966Y0015667D02*
X0241966Y0017335D01*
X0242800Y0018170D01*
X0244468Y0018170D01*
X0245302Y0017335D01*
X0244468Y0014833D02*
X0242800Y0014833D01*
X0241966Y0015667D01*
X0240146Y0018170D02*
X0238478Y0014833D01*
X0236810Y0018170D01*
X0234989Y0017335D02*
X0234989Y0016501D01*
X0231653Y0016501D01*
X0231653Y0015667D02*
X0231653Y0017335D01*
X0232487Y0018170D01*
X0234155Y0018170D01*
X0234989Y0017335D01*
X0234155Y0014833D02*
X0232487Y0014833D01*
X0231653Y0015667D01*
X0229833Y0014833D02*
X0228165Y0016501D01*
X0228999Y0016501D02*
X0226497Y0016501D01*
X0226497Y0014833D02*
X0226497Y0019838D01*
X0228999Y0019838D01*
X0229833Y0019004D01*
X0229833Y0017335D01*
X0228999Y0016501D01*
X0231653Y0021915D02*
X0231653Y0026920D01*
X0234155Y0026920D01*
X0234989Y0026085D01*
X0234989Y0024417D01*
X0234155Y0023583D01*
X0231653Y0023583D01*
X0229833Y0024417D02*
X0228999Y0023583D01*
X0227331Y0023583D01*
X0226497Y0024417D01*
X0227331Y0026085D02*
X0228999Y0026085D01*
X0229833Y0025251D01*
X0229833Y0024417D01*
X0227331Y0026085D02*
X0226497Y0026920D01*
X0226497Y0027754D01*
X0227331Y0028588D01*
X0228999Y0028588D01*
X0229833Y0027754D01*
X0236810Y0026920D02*
X0237644Y0026920D01*
X0228165Y0034835D02*
X0226497Y0034835D01*
X0243020Y0043585D02*
X0244688Y0043585D01*
X0247097Y0061083D02*
X0246263Y0061917D01*
X0247097Y0062751D01*
X0249599Y0062751D01*
X0249599Y0063585D02*
X0249599Y0061083D01*
X0247097Y0061083D01*
X0247097Y0064420D02*
X0248765Y0064420D01*
X0249599Y0063585D01*
X0251419Y0062751D02*
X0253088Y0064420D01*
X0253922Y0064420D01*
X0255716Y0063585D02*
X0256550Y0064420D01*
X0259053Y0064420D01*
X0259053Y0066088D02*
X0259053Y0061083D01*
X0256550Y0061083D01*
X0255716Y0061917D01*
X0255716Y0063585D01*
X0251419Y0064420D02*
X0251419Y0061083D01*
X0231083Y0081083D02*
X0231083Y0084420D01*
X0229415Y0086088D01*
X0227747Y0084420D01*
X0227747Y0081083D01*
X0227747Y0083585D02*
X0231083Y0083585D01*
X0230249Y0089833D02*
X0227747Y0089833D01*
X0227747Y0094838D01*
X0230249Y0094838D01*
X0231083Y0094004D01*
X0231083Y0093170D01*
X0230249Y0092335D01*
X0227747Y0092335D01*
X0230249Y0092335D02*
X0231083Y0091501D01*
X0231083Y0090667D01*
X0230249Y0089833D01*
X0243879Y0098583D02*
X0247215Y0098583D01*
X0249036Y0098583D02*
X0249036Y0101920D01*
X0251538Y0101920D01*
X0252372Y0101085D01*
X0252372Y0098583D01*
X0254192Y0099417D02*
X0254192Y0101085D01*
X0255026Y0101920D01*
X0257528Y0101920D01*
X0259348Y0101085D02*
X0259348Y0099417D01*
X0260182Y0098583D01*
X0261850Y0098583D01*
X0262684Y0099417D01*
X0262684Y0101085D01*
X0261850Y0101920D01*
X0260182Y0101920D01*
X0259348Y0101085D01*
X0257528Y0098583D02*
X0255026Y0098583D01*
X0254192Y0099417D01*
X0247215Y0103588D02*
X0243879Y0103588D01*
X0243879Y0098583D01*
X0243879Y0101085D02*
X0245547Y0101085D01*
X0264505Y0101085D02*
X0264505Y0099417D01*
X0265339Y0098583D01*
X0267841Y0098583D01*
X0267841Y0103588D01*
X0267841Y0101920D02*
X0265339Y0101920D01*
X0264505Y0101085D01*
X0269661Y0101085D02*
X0269661Y0099417D01*
X0270495Y0098583D01*
X0272163Y0098583D01*
X0272997Y0100251D02*
X0269661Y0100251D01*
X0269661Y0101085D02*
X0270495Y0101920D01*
X0272163Y0101920D01*
X0272997Y0101085D01*
X0272997Y0100251D01*
X0274818Y0100251D02*
X0276486Y0101920D01*
X0277320Y0101920D01*
X0274818Y0101920D02*
X0274818Y0098583D01*
X0275677Y0074838D02*
X0276511Y0074838D01*
X0238706Y0123877D02*
X0235597Y0123877D01*
X0253687Y0163290D02*
X0256797Y0163290D01*
X0266187Y0163290D02*
X0269297Y0163290D01*
X0293687Y0163290D02*
X0296797Y0163290D01*
X0297593Y0324833D02*
X0295924Y0324833D01*
X0295090Y0325667D01*
X0295090Y0329004D01*
X0295924Y0329838D01*
X0297593Y0329838D01*
X0298427Y0329004D01*
X0298427Y0325667D01*
X0297593Y0324833D01*
X0300247Y0324833D02*
X0300247Y0328170D01*
X0302749Y0328170D01*
X0303583Y0327335D01*
X0303583Y0324833D01*
X0314231Y0325667D02*
X0315065Y0324833D01*
X0316733Y0324833D01*
X0317567Y0325667D01*
X0317567Y0329004D01*
X0316733Y0329838D01*
X0315065Y0329838D01*
X0314231Y0329004D01*
X0314231Y0325667D01*
X0319387Y0327335D02*
X0321056Y0327335D01*
X0322825Y0327335D02*
X0324493Y0327335D01*
X0323659Y0329004D02*
X0324493Y0329838D01*
X0323659Y0329004D02*
X0323659Y0324833D01*
X0320221Y0324833D02*
X0320221Y0329004D01*
X0321056Y0329838D01*
X0332512Y0329004D02*
X0332512Y0325667D01*
X0333346Y0324833D01*
X0335014Y0324833D01*
X0335848Y0325667D01*
X0337669Y0325667D02*
X0338503Y0324833D01*
X0340171Y0324833D01*
X0341005Y0325667D01*
X0341005Y0327335D01*
X0340171Y0328170D01*
X0338503Y0328170D01*
X0337669Y0327335D01*
X0337669Y0325667D01*
X0335848Y0329004D02*
X0335014Y0329838D01*
X0333346Y0329838D01*
X0332512Y0329004D01*
X0342825Y0328170D02*
X0342825Y0324833D01*
X0344493Y0324833D02*
X0344493Y0327335D01*
X0345327Y0328170D01*
X0346161Y0327335D01*
X0346161Y0324833D01*
X0344493Y0327335D02*
X0343659Y0328170D01*
X0342825Y0328170D01*
X0355090Y0329004D02*
X0355090Y0325667D01*
X0355924Y0324833D01*
X0357593Y0324833D01*
X0358427Y0325667D01*
X0358427Y0329004D01*
X0357593Y0329838D01*
X0355924Y0329838D01*
X0355090Y0329004D01*
X0360247Y0328170D02*
X0360247Y0324833D01*
X0363583Y0324833D02*
X0363583Y0327335D01*
X0362749Y0328170D01*
X0360247Y0328170D01*
X0286161Y0327335D02*
X0286161Y0324833D01*
X0284493Y0324833D02*
X0284493Y0327335D01*
X0285327Y0328170D01*
X0286161Y0327335D01*
X0284493Y0327335D02*
X0283659Y0328170D01*
X0282825Y0328170D01*
X0282825Y0324833D01*
X0281005Y0325667D02*
X0281005Y0327335D01*
X0280171Y0328170D01*
X0278503Y0328170D01*
X0277669Y0327335D01*
X0277669Y0325667D01*
X0278503Y0324833D01*
X0280171Y0324833D01*
X0281005Y0325667D01*
X0275848Y0325667D02*
X0275014Y0324833D01*
X0273346Y0324833D01*
X0272512Y0325667D01*
X0272512Y0329004D01*
X0273346Y0329838D01*
X0275014Y0329838D01*
X0275848Y0329004D01*
X0264493Y0329838D02*
X0263659Y0329004D01*
X0263659Y0324833D01*
X0262825Y0327335D02*
X0264493Y0327335D01*
X0261056Y0327335D02*
X0259387Y0327335D01*
X0260221Y0329004D02*
X0261056Y0329838D01*
X0260221Y0329004D02*
X0260221Y0324833D01*
X0257567Y0325667D02*
X0257567Y0329004D01*
X0256733Y0329838D01*
X0255065Y0329838D01*
X0254231Y0329004D01*
X0254231Y0325667D01*
X0255065Y0324833D01*
X0256733Y0324833D01*
X0257567Y0325667D01*
X0241005Y0327335D02*
X0237669Y0327335D01*
X0239337Y0325667D02*
X0239337Y0329004D01*
X0230054Y0328170D02*
X0229220Y0328170D01*
X0227552Y0326501D01*
X0227552Y0324833D02*
X0227552Y0328170D01*
X0225732Y0327335D02*
X0225732Y0326501D01*
X0222395Y0326501D01*
X0222395Y0325667D02*
X0222395Y0327335D01*
X0223229Y0328170D01*
X0224897Y0328170D01*
X0225732Y0327335D01*
X0224897Y0324833D02*
X0223229Y0324833D01*
X0222395Y0325667D01*
X0220575Y0325667D02*
X0219741Y0324833D01*
X0217239Y0324833D01*
X0217239Y0323165D02*
X0217239Y0328170D01*
X0219741Y0328170D01*
X0220575Y0327335D01*
X0220575Y0325667D01*
X0215469Y0324833D02*
X0213801Y0324833D01*
X0214635Y0324833D02*
X0214635Y0328170D01*
X0213801Y0328170D01*
X0214635Y0329838D02*
X0214635Y0330672D01*
X0211981Y0329838D02*
X0211981Y0324833D01*
X0210313Y0326501D01*
X0208645Y0324833D01*
X0208645Y0329838D01*
X0201005Y0327335D02*
X0197669Y0327335D01*
X0122255Y0343585D02*
X0118919Y0343585D01*
X0117007Y0344420D02*
X0116173Y0344420D01*
X0114505Y0342751D01*
X0114505Y0341083D02*
X0114505Y0344420D01*
X0112685Y0343585D02*
X0111850Y0344420D01*
X0109348Y0344420D01*
X0109348Y0339415D01*
X0109348Y0341083D02*
X0111850Y0341083D01*
X0112685Y0341917D01*
X0112685Y0343585D01*
X0107528Y0341083D02*
X0107528Y0346088D01*
X0104192Y0346088D02*
X0104192Y0341083D01*
X0105860Y0342751D01*
X0107528Y0341083D01*
X0101005Y0343585D02*
X0097669Y0343585D01*
X0092411Y0344420D02*
X0089909Y0344420D01*
X0089075Y0343585D01*
X0089075Y0341917D01*
X0089909Y0341083D01*
X0092411Y0341083D01*
X0092411Y0346088D01*
X0087255Y0344420D02*
X0087255Y0341917D01*
X0086421Y0341083D01*
X0085587Y0341917D01*
X0084753Y0341083D01*
X0083919Y0341917D01*
X0083919Y0344420D01*
X0082098Y0346088D02*
X0078762Y0346088D01*
X0078762Y0341083D01*
X0078762Y0343585D02*
X0080430Y0343585D01*
X0072411Y0344420D02*
X0070743Y0341083D01*
X0069075Y0344420D01*
X0067255Y0343585D02*
X0067255Y0342751D01*
X0063919Y0342751D01*
X0063919Y0341917D02*
X0063919Y0343585D01*
X0064753Y0344420D01*
X0066421Y0344420D01*
X0067255Y0343585D01*
X0066421Y0341083D02*
X0064753Y0341083D01*
X0063919Y0341917D01*
X0062098Y0341083D02*
X0060430Y0342751D01*
X0061264Y0342751D02*
X0058762Y0342751D01*
X0058762Y0341083D02*
X0058762Y0346088D01*
X0061264Y0346088D01*
X0062098Y0345254D01*
X0062098Y0343585D01*
X0061264Y0342751D01*
X0052411Y0331088D02*
X0052411Y0327751D01*
X0050743Y0326083D01*
X0049075Y0327751D01*
X0049075Y0331088D01*
X0047255Y0330254D02*
X0046421Y0331088D01*
X0044753Y0331088D01*
X0043919Y0330254D01*
X0047255Y0330254D02*
X0047255Y0329420D01*
X0043919Y0326083D01*
X0047255Y0326083D01*
X0042098Y0326083D02*
X0038762Y0326083D01*
X0040430Y0326083D02*
X0040430Y0331088D01*
X0038762Y0329420D01*
X0038087Y0311088D02*
X0039755Y0309420D01*
X0039755Y0306083D01*
X0039755Y0308585D02*
X0036419Y0308585D01*
X0036419Y0309420D02*
X0038087Y0311088D01*
X0036419Y0309420D02*
X0036419Y0306083D01*
X0036419Y0291088D02*
X0038921Y0291088D01*
X0039755Y0290254D01*
X0039755Y0289420D01*
X0038921Y0288585D01*
X0036419Y0288585D01*
X0036419Y0286083D02*
X0036419Y0291088D01*
X0038921Y0288585D02*
X0039755Y0287751D01*
X0039755Y0286917D01*
X0038921Y0286083D01*
X0036419Y0286083D01*
X0039596Y0271088D02*
X0038762Y0270254D01*
X0038762Y0266917D01*
X0039596Y0266083D01*
X0041264Y0266083D01*
X0042098Y0266917D01*
X0042098Y0268585D01*
X0040430Y0268585D01*
X0042098Y0270254D02*
X0041264Y0271088D01*
X0039596Y0271088D01*
X0043919Y0271088D02*
X0047255Y0266083D01*
X0047255Y0271088D01*
X0049075Y0271088D02*
X0051577Y0271088D01*
X0052411Y0270254D01*
X0052411Y0266917D01*
X0051577Y0266083D01*
X0049075Y0266083D01*
X0049075Y0271088D01*
X0043919Y0271088D02*
X0043919Y0266083D01*
X0044677Y0251088D02*
X0041340Y0251088D01*
X0041340Y0246083D01*
X0044677Y0246083D01*
X0046497Y0246083D02*
X0046497Y0251088D01*
X0049833Y0246083D01*
X0049833Y0251088D01*
X0043009Y0248585D02*
X0041340Y0248585D01*
X0042174Y0231088D02*
X0041340Y0230254D01*
X0041340Y0226917D01*
X0042174Y0226083D01*
X0043843Y0226083D01*
X0044677Y0226917D01*
X0044677Y0230254D01*
X0043843Y0231088D01*
X0042174Y0231088D01*
X0046497Y0229420D02*
X0046497Y0226083D01*
X0049833Y0226083D02*
X0049833Y0228585D01*
X0048999Y0229420D01*
X0046497Y0229420D01*
X0041264Y0211088D02*
X0038762Y0211088D01*
X0038762Y0206083D01*
X0038762Y0207751D02*
X0041264Y0207751D01*
X0042098Y0208585D01*
X0042098Y0210254D01*
X0041264Y0211088D01*
X0040430Y0207751D02*
X0042098Y0206083D01*
X0043919Y0206917D02*
X0043919Y0208585D01*
X0044753Y0209420D01*
X0046421Y0209420D01*
X0047255Y0208585D01*
X0047255Y0207751D01*
X0043919Y0207751D01*
X0043919Y0206917D02*
X0044753Y0206083D01*
X0046421Y0206083D01*
X0049075Y0209420D02*
X0050743Y0206083D01*
X0052411Y0209420D01*
X0038921Y0191088D02*
X0039755Y0190254D01*
X0039755Y0189420D01*
X0038921Y0188585D01*
X0036419Y0188585D01*
X0036419Y0186083D02*
X0038921Y0186083D01*
X0039755Y0186917D01*
X0039755Y0187751D01*
X0038921Y0188585D01*
X0038921Y0191088D02*
X0036419Y0191088D01*
X0036419Y0186083D01*
X0038087Y0171088D02*
X0039755Y0169420D01*
X0039755Y0166083D01*
X0039755Y0168585D02*
X0036419Y0168585D01*
X0036419Y0169420D02*
X0038087Y0171088D01*
X0036419Y0169420D02*
X0036419Y0166083D01*
X0039596Y0151088D02*
X0038762Y0150254D01*
X0038762Y0149420D01*
X0039596Y0148585D01*
X0041264Y0148585D01*
X0042098Y0147751D01*
X0042098Y0146917D01*
X0041264Y0146083D01*
X0039596Y0146083D01*
X0038762Y0146917D01*
X0039596Y0151088D02*
X0041264Y0151088D01*
X0042098Y0150254D01*
X0043919Y0149420D02*
X0043919Y0144415D01*
X0043919Y0146083D02*
X0046421Y0146083D01*
X0047255Y0146917D01*
X0047255Y0148585D01*
X0046421Y0149420D01*
X0043919Y0149420D01*
X0049075Y0148585D02*
X0049075Y0146917D01*
X0049909Y0146083D01*
X0052411Y0146083D01*
X0052411Y0151088D01*
X0052411Y0149420D02*
X0049909Y0149420D01*
X0049075Y0148585D01*
X0049075Y0131088D02*
X0051577Y0131088D01*
X0052411Y0130254D01*
X0052411Y0126917D01*
X0051577Y0126083D01*
X0049075Y0126083D01*
X0049075Y0131088D01*
X0047255Y0131088D02*
X0047255Y0126083D01*
X0043919Y0131088D01*
X0043919Y0126083D01*
X0042098Y0126917D02*
X0042098Y0128585D01*
X0040430Y0128585D01*
X0038762Y0126917D02*
X0038762Y0130254D01*
X0039596Y0131088D01*
X0041264Y0131088D01*
X0042098Y0130254D01*
X0042098Y0126917D02*
X0041264Y0126083D01*
X0039596Y0126083D01*
X0038762Y0126917D01*
X0040090Y0081088D02*
X0042593Y0081088D01*
X0043427Y0080254D01*
X0043427Y0078585D01*
X0042593Y0077751D01*
X0040090Y0077751D01*
X0040090Y0076083D02*
X0040090Y0081088D01*
X0045247Y0081088D02*
X0045247Y0076083D01*
X0048583Y0076083D01*
X0046915Y0078585D02*
X0045247Y0078585D01*
X0045247Y0081088D02*
X0048583Y0081088D01*
X0046005Y0061088D02*
X0046005Y0056083D01*
X0042669Y0061088D01*
X0042669Y0056083D01*
X0042669Y0041088D02*
X0042669Y0036083D01*
X0046005Y0036083D01*
X0093993Y0216495D02*
X0093993Y0217963D01*
X0093993Y0217229D02*
X0098397Y0217229D01*
X0098397Y0216495D02*
X0098397Y0217963D01*
X0097663Y0219564D02*
X0094727Y0219564D01*
X0093993Y0220298D01*
X0093993Y0221766D01*
X0094727Y0222500D01*
X0096195Y0224168D02*
X0094727Y0225636D01*
X0093993Y0227104D01*
X0096195Y0226370D02*
X0096195Y0224168D01*
X0097663Y0224168D01*
X0098397Y0224902D01*
X0098397Y0226370D01*
X0097663Y0227104D01*
X0096929Y0227104D01*
X0096195Y0226370D01*
X0097663Y0222500D02*
X0098397Y0221766D01*
X0098397Y0220298D01*
X0097663Y0219564D01*
X0098397Y0295245D02*
X0098397Y0296713D01*
X0098397Y0295979D02*
X0093993Y0295979D01*
X0093993Y0295245D02*
X0093993Y0296713D01*
X0094727Y0298314D02*
X0097663Y0298314D01*
X0098397Y0299048D01*
X0098397Y0300516D01*
X0097663Y0301250D01*
X0097663Y0302918D02*
X0098397Y0303652D01*
X0098397Y0305120D01*
X0097663Y0305854D01*
X0096929Y0305854D01*
X0096195Y0305120D01*
X0096195Y0304386D01*
X0096195Y0305120D02*
X0095461Y0305854D01*
X0094727Y0305854D01*
X0093993Y0305120D01*
X0093993Y0303652D01*
X0094727Y0302918D01*
X0094727Y0301250D02*
X0093993Y0300516D01*
X0093993Y0299048D01*
X0094727Y0298314D01*
X0120587Y0341917D02*
X0120587Y0345254D01*
D13*
X0142793Y0279587D02*
X0142793Y0276718D01*
X0144945Y0276718D01*
X0144228Y0278152D01*
X0144228Y0278870D01*
X0144945Y0279587D01*
X0146380Y0279587D01*
X0147097Y0278870D01*
X0147097Y0277435D01*
X0146380Y0276718D01*
X0146380Y0274983D02*
X0147097Y0274266D01*
X0147097Y0272831D01*
X0146380Y0272114D01*
X0143510Y0272114D01*
X0142793Y0272831D01*
X0142793Y0274266D01*
X0143510Y0274983D01*
X0142793Y0270479D02*
X0142793Y0269045D01*
X0142793Y0269762D02*
X0147097Y0269762D01*
X0147097Y0269045D02*
X0147097Y0270479D01*
X0116916Y0260183D02*
X0114047Y0260183D01*
X0115481Y0260183D02*
X0115481Y0264487D01*
X0114047Y0263052D01*
X0112312Y0264487D02*
X0109443Y0260183D01*
X0112312Y0260183D02*
X0109443Y0264487D01*
X0206485Y0224487D02*
X0206485Y0220183D01*
X0208637Y0220183D01*
X0209354Y0220901D01*
X0209354Y0223770D01*
X0208637Y0224487D01*
X0206485Y0224487D01*
X0211089Y0224487D02*
X0211089Y0220183D01*
X0211089Y0221618D02*
X0213241Y0221618D01*
X0213958Y0222335D01*
X0213958Y0223770D01*
X0213241Y0224487D01*
X0211089Y0224487D01*
X0212524Y0221618D02*
X0213958Y0220183D01*
X0215693Y0222335D02*
X0218562Y0222335D01*
X0220297Y0223052D02*
X0221731Y0224487D01*
X0221731Y0220183D01*
X0220297Y0220183D02*
X0223166Y0220183D01*
X0224901Y0220183D02*
X0227770Y0223052D01*
X0227770Y0223770D01*
X0227053Y0224487D01*
X0225618Y0224487D01*
X0224901Y0223770D01*
X0224901Y0220183D02*
X0227770Y0220183D01*
X0229505Y0221618D02*
X0230939Y0220183D01*
X0232374Y0221618D01*
X0232374Y0224487D01*
X0229505Y0224487D02*
X0229505Y0221618D01*
X0227053Y0230183D02*
X0225618Y0230183D01*
X0224901Y0230901D01*
X0223166Y0230183D02*
X0220297Y0230183D01*
X0220297Y0234487D01*
X0218562Y0234487D02*
X0215693Y0234487D01*
X0215693Y0230183D01*
X0218562Y0230183D01*
X0217127Y0232335D02*
X0215693Y0232335D01*
X0213958Y0232335D02*
X0213241Y0231618D01*
X0211089Y0231618D01*
X0212524Y0231618D02*
X0213958Y0230183D01*
X0213958Y0232335D02*
X0213958Y0233770D01*
X0213241Y0234487D01*
X0211089Y0234487D01*
X0211089Y0230183D01*
X0224901Y0233770D02*
X0225618Y0234487D01*
X0227053Y0234487D01*
X0227770Y0233770D01*
X0227770Y0233052D01*
X0227053Y0232335D01*
X0227770Y0231618D01*
X0227770Y0230901D01*
X0227053Y0230183D01*
X0227053Y0232335D02*
X0226335Y0232335D01*
X0266485Y0224487D02*
X0266485Y0220183D01*
X0268637Y0220183D01*
X0269354Y0220901D01*
X0269354Y0223770D01*
X0268637Y0224487D01*
X0266485Y0224487D01*
X0271089Y0224487D02*
X0271089Y0220183D01*
X0271089Y0221618D02*
X0273241Y0221618D01*
X0273958Y0222335D01*
X0273958Y0223770D01*
X0273241Y0224487D01*
X0271089Y0224487D01*
X0272524Y0221618D02*
X0273958Y0220183D01*
X0275693Y0222335D02*
X0278562Y0222335D01*
X0280297Y0223052D02*
X0281731Y0224487D01*
X0281731Y0220183D01*
X0280297Y0220183D02*
X0283166Y0220183D01*
X0284901Y0220183D02*
X0287770Y0223052D01*
X0287770Y0223770D01*
X0287053Y0224487D01*
X0285618Y0224487D01*
X0284901Y0223770D01*
X0284901Y0220183D02*
X0287770Y0220183D01*
X0289505Y0221618D02*
X0289505Y0224487D01*
X0292374Y0224487D02*
X0292374Y0221618D01*
X0290939Y0220183D01*
X0289505Y0221618D01*
X0287770Y0230183D02*
X0284901Y0230183D01*
X0286335Y0230183D02*
X0286335Y0234487D01*
X0284901Y0233052D01*
X0283166Y0230183D02*
X0280297Y0230183D01*
X0280297Y0234487D01*
X0278562Y0234487D02*
X0275693Y0234487D01*
X0275693Y0230183D01*
X0278562Y0230183D01*
X0277127Y0232335D02*
X0275693Y0232335D01*
X0273958Y0232335D02*
X0273241Y0231618D01*
X0271089Y0231618D01*
X0272524Y0231618D02*
X0273958Y0230183D01*
X0273958Y0232335D02*
X0273958Y0233770D01*
X0273241Y0234487D01*
X0271089Y0234487D01*
X0271089Y0230183D01*
X0326485Y0224487D02*
X0326485Y0220183D01*
X0328637Y0220183D01*
X0329354Y0220901D01*
X0329354Y0223770D01*
X0328637Y0224487D01*
X0326485Y0224487D01*
X0331089Y0224487D02*
X0331089Y0220183D01*
X0331089Y0221618D02*
X0333241Y0221618D01*
X0333958Y0222335D01*
X0333958Y0223770D01*
X0333241Y0224487D01*
X0331089Y0224487D01*
X0332524Y0221618D02*
X0333958Y0220183D01*
X0335693Y0222335D02*
X0338562Y0222335D01*
X0340297Y0223052D02*
X0341731Y0224487D01*
X0341731Y0220183D01*
X0340297Y0220183D02*
X0343166Y0220183D01*
X0344901Y0220183D02*
X0347770Y0223052D01*
X0347770Y0223770D01*
X0347053Y0224487D01*
X0345618Y0224487D01*
X0344901Y0223770D01*
X0344901Y0220183D02*
X0347770Y0220183D01*
X0349505Y0221618D02*
X0349505Y0224487D01*
X0352374Y0224487D02*
X0352374Y0221618D01*
X0350939Y0220183D01*
X0349505Y0221618D01*
X0347770Y0230183D02*
X0344901Y0230183D01*
X0347770Y0233052D01*
X0347770Y0233770D01*
X0347053Y0234487D01*
X0345618Y0234487D01*
X0344901Y0233770D01*
X0343166Y0230183D02*
X0340297Y0230183D01*
X0340297Y0234487D01*
X0338562Y0234487D02*
X0335693Y0234487D01*
X0335693Y0230183D01*
X0338562Y0230183D01*
X0337127Y0232335D02*
X0335693Y0232335D01*
X0333958Y0232335D02*
X0333241Y0231618D01*
X0331089Y0231618D01*
X0332524Y0231618D02*
X0333958Y0230183D01*
X0333958Y0232335D02*
X0333958Y0233770D01*
X0333241Y0234487D01*
X0331089Y0234487D01*
X0331089Y0230183D01*
X0323347Y0142087D02*
X0323347Y0139218D01*
X0320478Y0142087D01*
X0319760Y0142087D01*
X0319043Y0141370D01*
X0319043Y0139935D01*
X0319760Y0139218D01*
X0319760Y0137483D02*
X0319043Y0136766D01*
X0319043Y0135331D01*
X0319760Y0134614D01*
X0322630Y0134614D01*
X0323347Y0135331D01*
X0323347Y0136766D01*
X0322630Y0137483D01*
X0323347Y0132979D02*
X0323347Y0131545D01*
X0323347Y0132262D02*
X0319043Y0132262D01*
X0319043Y0131545D02*
X0319043Y0132979D01*
X0210847Y0132979D02*
X0210847Y0131545D01*
X0210847Y0132262D02*
X0206543Y0132262D01*
X0206543Y0131545D02*
X0206543Y0132979D01*
X0207260Y0134614D02*
X0210130Y0134614D01*
X0210847Y0135331D01*
X0210847Y0136766D01*
X0210130Y0137483D01*
X0208695Y0139218D02*
X0208695Y0142087D01*
X0206543Y0141370D02*
X0208695Y0139218D01*
X0207260Y0137483D02*
X0206543Y0136766D01*
X0206543Y0135331D01*
X0207260Y0134614D01*
X0206543Y0141370D02*
X0210847Y0141370D01*
X0198699Y0085737D02*
X0197264Y0085737D01*
X0196547Y0085020D01*
X0196547Y0084302D01*
X0197264Y0083585D01*
X0198699Y0083585D01*
X0199416Y0082868D01*
X0199416Y0082151D01*
X0198699Y0081433D01*
X0197264Y0081433D01*
X0196547Y0082151D01*
X0196547Y0082868D01*
X0197264Y0083585D01*
X0198699Y0083585D02*
X0199416Y0084302D01*
X0199416Y0085020D01*
X0198699Y0085737D01*
X0194812Y0085020D02*
X0194095Y0085737D01*
X0192660Y0085737D01*
X0191943Y0085020D01*
X0191943Y0082151D01*
X0192660Y0081433D01*
X0194095Y0081433D01*
X0194812Y0082151D01*
X0194095Y0041987D02*
X0192660Y0041987D01*
X0191943Y0041270D01*
X0191943Y0038401D01*
X0192660Y0037683D01*
X0194095Y0037683D01*
X0194812Y0038401D01*
X0196547Y0038401D02*
X0196547Y0037683D01*
X0196547Y0038401D02*
X0199416Y0041270D01*
X0199416Y0041987D01*
X0196547Y0041987D01*
X0194812Y0041270D02*
X0194095Y0041987D01*
D14*
X0203512Y0253308D02*
X0203512Y0257111D01*
X0205413Y0255210D02*
X0201610Y0255210D01*
X0233106Y0255210D02*
X0236910Y0255210D01*
X0261610Y0255210D02*
X0265413Y0255210D01*
X0263512Y0257111D02*
X0263512Y0253308D01*
X0293106Y0255210D02*
X0296910Y0255210D01*
X0321610Y0255210D02*
X0325413Y0255210D01*
X0323512Y0257111D02*
X0323512Y0253308D01*
X0353106Y0255210D02*
X0356910Y0255210D01*
D15*
X0170065Y0171575D02*
X0170065Y0045591D01*
X0059829Y0045591D01*
X0059829Y0171575D01*
X0170065Y0171575D01*
M02*
